<svg xmlns="http://www.w3.org/2000/svg" width="430" height="174.453" viewBox="0 0 430 174.453">
  <g id="idLogo" fill="whitesmoke" transform="translate(-63.149 -114.408)">
    <g id="logo-group" transform="translate(63.149 114.408)">
      <path d="M63.149,114.408h54.017V288.834H63.149Z" transform="translate(-63.149 -114.408)" />
      <path
        d="M76.533,114.408h89.593q29.269,0,43.785,13.921,14.635,13.921,14.635,39.621,0,26.414-15.944,41.287-15.824,14.873-48.425,14.873H130.669v64.726H76.533Zm54.136,74.363h13.207q15.587,0,21.892-5.354a17.622,17.622,0,0,0,6.306-13.921,19.37,19.37,0,0,0-5.473-13.921q-5.473-5.711-20.584-5.711H130.669Z"
        transform="translate(15.916 -114.408)" />
    </g>
    <path id="Vereinigungsmenge_1" data-name="Vereinigungsmenge 1"
      d="M0,174.451V136.959H84.752v-.006h54.47l27.391-.006c9.232,0,15.84-1.641,19.632-4.88a16.912,16.912,0,0,0,5.707-13.322,15.213,15.213,0,0,0-5.707-12.377c-3.711-3.158-10.357-4.756-19.75-4.756H139.129l-54.377.012V0h100.9c16.735,0,29.747,4.2,38.668,12.489A40.539,40.539,0,0,1,237.88,43.43a39.218,39.218,0,0,1-9.636,26.532c-4.265,4.893-10.587,8.815-18.8,11.656,12.477,3,21.764,8.249,27.6,15.591,5.924,7.261,8.927,16.549,8.927,27.6a47.765,47.765,0,0,1-6.31,24.388,46.641,46.641,0,0,1-17.251,17.133c-4.507,2.611-11.389,4.532-20.465,5.713-12.091,1.579-20.217,2.381-24.152,2.381H84.776v.025ZM139.129,68.414h23.437c8.361,0,14.249-1.442,17.494-4.283,3.313-2.922,4.992-7.168,4.992-12.613,0-5.048-1.679-9.051-4.992-11.9-3.245-2.841-9.008-4.284-17.139-4.284H139.129Z"
      transform="translate(247.175 114.409)" />
  </g>
</svg>