<?xml version="1.0" encoding="UTF-8" standalone="no"?>
<!-- Created with Inkscape (http://www.inkscape.org/) -->
<svg
   xmlns:dc="http://purl.org/dc/elements/1.1/"
   xmlns:cc="http://creativecommons.org/ns#"
   xmlns:rdf="http://www.w3.org/1999/02/22-rdf-syntax-ns#"
   xmlns:svg="http://www.w3.org/2000/svg"
   xmlns="http://www.w3.org/2000/svg"
   xmlns:sodipodi="http://sodipodi.sourceforge.net/DTD/sodipodi-0.dtd"
   xmlns:inkscape="http://www.inkscape.org/namespaces/inkscape"
   width="330"
   height="190"
   id="svg3016"
   sodipodi:version="0.32"
   inkscape:version="0.46"
   version="1.0"
   sodipodi:docname="Logo Friedrich Ebert Stiftung.svg"
   inkscape:output_extension="org.inkscape.output.svg.inkscape">
  <defs
     id="defs3018">
    <clipPath
       clipPathUnits="userSpaceOnUse"
       id="clipPath2808">
      <path
         d="M 594.425,0 L 668.976,0 L 668.976,76.392 L 594.425,76.392 L 594.425,0 z"
         id="path2810" />
    </clipPath>
    <inkscape:perspective
       sodipodi:type="inkscape:persp3d"
       inkscape:vp_x="0 : 526.18109 : 1"
       inkscape:vp_y="0 : 1000 : 0"
       inkscape:vp_z="744.09448 : 526.18109 : 1"
       inkscape:persp3d-origin="372.04724 : 350.78739 : 1"
       id="perspective3024" />
  </defs>
  <sodipodi:namedview
     id="base"
     pagecolor="#ffffff"
     bordercolor="#666666"
     borderopacity="1.0"
     inkscape:pageopacity="0.0"
     inkscape:pageshadow="2"
     inkscape:zoom="3.4571429"
     inkscape:cx="164.28571"
     inkscape:cy="71.428571"
     inkscape:document-units="px"
     inkscape:current-layer="layer1"
     showgrid="false" />
  <metadata
     id="metadata3021">
    <rdf:RDF>
      <cc:Work
         rdf:about="">
        <dc:format>image/svg+xml</dc:format>
        <dc:type
           rdf:resource="http://purl.org/dc/dcmitype/StillImage" />
      </cc:Work>
    </rdf:RDF>
  </metadata>
  <g
     inkscape:label="Ebene 1"
     inkscape:groupmode="layer"
     id="layer1"
     transform="translate(-164.83434,-81.759614)">
    <g
       id="g2812"
       transform="matrix(4.3543112,0,0,-4.3543112,207.63996,215.54763)">
      <path
         d="M 0,0 C -1.135,0.644 -2.71,1.05 -3.999,1.05 C -6.557,1.05 -8.403,-0.644 -8.403,-3.236 C -8.403,-5.71 -7.031,-6.253 -4.947,-6.845 C -4.235,-7.049 -2.93,-7.371 -2.93,-8.303 C -2.93,-9.201 -3.761,-9.591 -4.54,-9.591 C -5.676,-9.591 -6.658,-8.998 -7.489,-8.269 L -8.912,-10.946 C -7.607,-11.861 -6.032,-12.403 -4.422,-12.403 C -3.134,-12.403 -1.796,-12.047 -0.796,-11.2 C 0.221,-10.336 0.526,-9.031 0.526,-7.76 C 0.526,-5.693 -0.847,-4.795 -2.625,-4.27 L -3.473,-4.016 C -4.049,-3.829 -4.947,-3.541 -4.947,-2.796 C -4.947,-2.084 -4.134,-1.728 -3.523,-1.728 C -2.71,-1.728 -1.932,-2.067 -1.321,-2.575 L 0,0 z"
         style="fill:#005697;fill-opacity:1;fill-rule:nonzero;stroke:none"
         id="path2814" />
    </g>
    <g
       id="g2816"
       transform="matrix(4.3543112,0,0,-4.3543112,231.29127,224.6943)">
      <path
         d="M 0,0 L 2.745,0 L 2.745,2.813 L -6.065,2.813 L -6.065,0 L -3.321,0 L -3.321,-9.963 L 0,-9.963 L 0,0 z"
         style="fill:#005697;fill-opacity:1;fill-rule:nonzero;stroke:none"
         id="path2818" />
    </g>
    <path
       d="M 259.01082,212.44736 L 244.55015,212.44736 L 244.55015,268.07804 L 259.01082,268.07804 L 259.01082,212.44736 z"
       style="fill:#005697;fill-opacity:1;fill-rule:nonzero;stroke:none"
       id="path2820" />
    <g
       id="g2822"
       transform="matrix(4.3543112,0,0,-4.3543112,292.78068,224.6943)">
      <path
         d="M 0,0 L 0,2.813 L -7.337,2.813 L -7.337,-9.963 L -4.016,-9.963 L -4.016,-4.949 L -0.373,-4.949 L -0.373,-2.135 L -4.016,-2.135 L -4.016,0 L 0,0 z"
         style="fill:#005697;fill-opacity:1;fill-rule:nonzero;stroke:none"
         id="path2824" />
    </g>
    <g
       id="g2826"
       transform="matrix(4.3543112,0,0,-4.3543112,319.7613,224.6943)">
      <path
         d="M 0,0 L 2.745,0 L 2.745,2.813 L -6.066,2.813 L -6.066,0 L -3.321,0 L -3.321,-9.963 L 0,-9.963 L 0,0 z"
         style="fill:#005697;fill-opacity:1;fill-rule:nonzero;stroke:none"
         id="path2828" />
    </g>
    <g
       id="g2830"
       transform="matrix(4.3543112,0,0,-4.3543112,366.81442,212.4478)">
      <path
         d="M 0,0 L 0,-6.728 C 0,-8.388 -0.119,-10.201 -2.255,-10.201 C -4.39,-10.201 -4.507,-8.388 -4.507,-6.728 L -4.507,0 L -7.83,0 L -7.83,-7.185 C -7.83,-8.828 -7.761,-10.455 -6.491,-11.691 C -5.423,-12.743 -3.745,-13.115 -2.255,-13.115 C -0.763,-13.115 0.914,-12.743 1.982,-11.691 C 3.253,-10.455 3.32,-8.828 3.32,-7.185 L 3.32,0 L 0,0 z"
         style="fill:#005697;fill-opacity:1;fill-rule:nonzero;stroke:none"
         id="path2832" />
    </g>
    <g
       id="g2834"
       transform="matrix(4.3543112,0,0,-4.3543112,382.79474,268.07804)">
      <path
         d="M 0,0 L 3.32,0 L 3.32,7.828 L 3.354,7.828 L 9.438,0 L 12.76,0 L 12.76,12.776 L 9.438,12.776 L 9.438,4.965 L 9.404,4.965 L 3.32,12.776 L 0,12.776 L 0,0 z"
         style="fill:#005697;fill-opacity:1;fill-rule:nonzero;stroke:none"
         id="path2836" />
    </g>
    <g
       id="g2838"
       transform="matrix(4.3543112,0,0,-4.3543112,464.75246,237.01526)">
      <path
         d="M 0,0 L 0,-2.61 L 2.711,-2.61 C 2.576,-4.084 1.474,-4.83 0.034,-4.83 C -2.151,-4.83 -3.338,-2.813 -3.338,-0.831 C -3.338,1.118 -2.204,3.202 -0.017,3.202 C 1.321,3.202 2.287,2.389 2.744,1.168 L 5.896,2.49 C 4.795,4.879 2.762,6.066 0.135,6.066 C -3.982,6.066 -6.796,3.338 -6.796,-0.814 C -6.796,-4.83 -3.999,-7.558 0.017,-7.558 C 2.152,-7.558 4.032,-6.795 5.287,-5.05 C 6.422,-3.457 6.557,-1.865 6.591,0 L 0,0 z"
         style="fill:#005697;fill-opacity:1;fill-rule:nonzero;stroke:none"
         id="path2840" />
    </g>
    <g
       id="g2842"
       transform="matrix(4.3543112,0,0,-4.3543112,202.99435,161.08913)">
      <path
         d="M 0,0 L 0,2.813 L -7.27,2.813 L -7.27,-9.963 L 0,-9.963 L 0,-7.151 L -3.948,-7.151 L -3.948,-4.948 L -0.204,-4.948 L -0.204,-2.135 L -3.948,-2.135 L -3.948,0 L 0,0 z"
         style="fill:#005697;fill-opacity:1;fill-rule:nonzero;stroke:none"
         id="path2844" />
    </g>
    <g
       id="g2846"
       transform="matrix(4.3543112,0,0,-4.3543112,219.05523,181.45294)">
      <path
         d="M 0,0 L 0.339,0 C 1.424,0 3.067,0.152 3.067,-1.39 C 3.067,-2.796 1.407,-2.745 0.424,-2.745 L 0,-2.745 L 0,0 z M 1.796,-5.287 C 4.135,-5.287 6.422,-4.406 6.422,-1.728 C 6.422,0.051 5.643,1.288 3.813,1.525 L 3.813,1.559 C 4.846,2.084 5.219,3.016 5.219,4.169 C 5.219,6.608 3.694,7.49 1.424,7.49 L -3.321,7.49 L -3.321,-5.287 L 1.796,-5.287 z M 0,4.948 L 0.238,4.948 C 1.136,4.948 2.169,4.88 2.169,3.711 C 2.169,2.626 1.254,2.473 0.373,2.473 L 0,2.473 L 0,4.948 z"
         style="fill:#005697;fill-opacity:1;fill-rule:nonzero;stroke:none"
         id="path2848" />
    </g>
    <g
       id="g2850"
       transform="matrix(4.3543112,0,0,-4.3543112,275.91426,161.08913)">
      <path
         d="M 0,0 L 0,2.813 L -7.269,2.813 L -7.269,-9.963 L 0,-9.963 L 0,-7.151 L -3.948,-7.151 L -3.948,-4.948 L -0.203,-4.948 L -0.203,-2.135 L -3.948,-2.135 L -3.948,0 L 0,0 z"
         style="fill:#005697;fill-opacity:1;fill-rule:nonzero;stroke:none"
         id="path2852" />
    </g>
    <g
       id="g2854"
       transform="matrix(4.3543112,0,0,-4.3543112,306.28993,181.67414)">
      <path
         d="M 0,0 C 1.813,0.322 2.795,1.847 2.795,3.609 C 2.795,6.337 0.881,7.54 -1.644,7.54 L -6.609,7.54 L -6.609,-5.236 L -3.287,-5.236 L -3.287,-0.322 L -3.253,-0.322 L -0.119,-5.236 L 4.016,-5.236 L 0,0 z M -3.287,4.999 L -2.965,4.999 C -1.881,4.999 -0.661,4.795 -0.661,3.406 C -0.661,2.016 -1.881,1.813 -2.965,1.813 L -3.287,1.813 L -3.287,4.999 z"
         style="fill:#005697;fill-opacity:1;fill-rule:nonzero;stroke:none"
         id="path2856" />
    </g>
    <g
       id="g2858"
       transform="matrix(4.3543112,0,0,-4.3543112,346.1911,161.08913)">
      <path
         d="M 0,0 L 2.744,0 L 2.744,2.813 L -6.067,2.813 L -6.067,0 L -3.322,0 L -3.322,-9.963 L 0,-9.963 L 0,0 z"
         style="fill:#005697;fill-opacity:1;fill-rule:nonzero;stroke:none"
         id="path2860" />
    </g>
    <g
       id="g2862"
       transform="matrix(4.3543112,0,0,-4.3543112,203.28783,97.483531)">
      <path
         d="M 0,0 L 0,2.813 L -7.337,2.813 L -7.337,-9.963 L -4.016,-9.963 L -4.016,-4.947 L -0.372,-4.947 L -0.372,-2.134 L -4.016,-2.134 L -4.016,0 L 0,0 z"
         style="fill:#005697;fill-opacity:1;fill-rule:nonzero;stroke:none"
         id="path2864" />
    </g>
    <g
       id="g2866"
       transform="matrix(4.3543112,0,0,-4.3543112,232.79177,118.06897)">
      <path
         d="M 0,0 C 1.813,0.322 2.795,1.847 2.795,3.609 C 2.795,6.337 0.881,7.54 -1.644,7.54 L -6.608,7.54 L -6.608,-5.235 L -3.287,-5.235 L -3.287,-0.322 L -3.253,-0.322 L -0.118,-5.235 L 4.016,-5.235 L 0,0 z M -3.287,4.999 L -2.966,4.999 C -1.881,4.999 -0.661,4.795 -0.661,3.406 C -0.661,2.017 -1.881,1.813 -2.966,1.813 L -3.287,1.813 L -3.287,4.999 z"
         style="fill:#005697;fill-opacity:1;fill-rule:nonzero;stroke:none"
         id="path2868" />
    </g>
    <path
       d="M 260.59143,85.23616 L 246.12641,85.23616 L 246.12641,140.86249 L 260.59143,140.86249 L 260.59143,85.23616 z"
       style="fill:#005697;fill-opacity:1;fill-rule:nonzero;stroke:none"
       id="path2870" />
    <g
       id="g2872"
       transform="matrix(4.3543112,0,0,-4.3543112,294.37523,97.483531)">
      <path
         d="M 0,0 L 0,2.813 L -7.269,2.813 L -7.269,-9.963 L 0,-9.963 L 0,-7.15 L -3.948,-7.15 L -3.948,-4.947 L -0.203,-4.947 L -0.203,-2.134 L -3.948,-2.134 L -3.948,0 L 0,0 z"
         style="fill:#005697;fill-opacity:1;fill-rule:nonzero;stroke:none"
         id="path2874" />
    </g>
    <g
       id="g2876"
       transform="matrix(4.3543112,0,0,-4.3543112,295.97196,140.8651)">
      <path
         d="M 0,0 L 4.711,0 C 8.253,0 11.2,2.796 11.2,6.388 C 11.2,9.98 8.27,12.775 4.711,12.775 L 0,12.775 L 0,0 z M 3.321,9.963 L 4.101,9.963 C 6.236,9.963 7.744,8.675 7.744,6.388 C 7.744,3.897 6.05,2.813 4.067,2.813 L 3.321,2.813 L 3.321,9.963 z"
         style="fill:#005697;fill-opacity:1;fill-rule:nonzero;stroke:none"
         id="path2878" />
    </g>
    <g
       id="g2880"
       transform="matrix(4.3543112,0,0,-4.3543112,370.71806,118.06897)">
      <path
         d="M 0,0 C 1.813,0.322 2.795,1.847 2.795,3.609 C 2.795,6.337 0.881,7.54 -1.644,7.54 L -6.608,7.54 L -6.608,-5.235 L -3.287,-5.235 L -3.287,-0.322 L -3.253,-0.322 L -0.119,-5.235 L 4.016,-5.235 L 0,0 z M -3.287,4.999 L -2.965,4.999 C -1.881,4.999 -0.661,4.795 -0.661,3.406 C -0.661,2.017 -1.881,1.813 -2.965,1.813 L -3.287,1.813 L -3.287,4.999 z"
         style="fill:#005697;fill-opacity:1;fill-rule:nonzero;stroke:none"
         id="path2882" />
    </g>
    <path
       d="M 398.51424,85.23616 L 384.05793,85.23616 L 384.05793,140.86249 L 398.51424,140.86249 L 398.51424,85.23616 z"
       style="fill:#005697;fill-opacity:1;fill-rule:nonzero;stroke:none"
       id="path2884" />
    <g
       id="g2886"
       transform="matrix(4.3543112,0,0,-4.3543112,438.94576,86.56379)">
      <path
         d="M 0,0 C -0.984,0.407 -1.967,0.644 -3.033,0.644 C -4.83,0.644 -6.644,-0.135 -7.898,-1.423 C -9.117,-2.677 -9.777,-4.355 -9.777,-6.101 C -9.777,-7.997 -9.134,-9.658 -7.728,-10.929 C -6.405,-12.132 -4.712,-12.81 -2.934,-12.81 C -1.899,-12.81 -1.103,-12.556 0,-12.216 L 0,-8.235 C -0.696,-9.065 -1.78,-9.591 -2.865,-9.591 C -4.932,-9.591 -6.321,-8.133 -6.321,-6.117 C -6.321,-4.134 -4.949,-2.576 -2.916,-2.576 C -1.78,-2.576 -0.679,-3.067 0,-3.982 L 0,0 z"
         style="fill:#005697;fill-opacity:1;fill-rule:nonzero;stroke:none"
         id="path2888" />
    </g>
    <g
       id="g2890"
       transform="matrix(4.3543112,0,0,-4.3543112,455.01099,106.70466)">
      <path
         d="M 0,0 L 0,4.93 L -3.32,4.93 L -3.32,-7.845 L 0,-7.845 L 0,-2.61 L 4.796,-2.61 L 4.796,-7.845 L 8.117,-7.845 L 8.117,4.93 L 4.796,4.93 L 4.796,0 L 0,0 z"
         style="fill:#005697;fill-opacity:1;fill-rule:nonzero;stroke:none"
         id="path2892" />
    </g>
    <g
       id="g2894"
       transform="matrix(4.3543112,0,0,-4.3543112,358.42497,159.77936)">
      <path
         d="M 0,0 L 13.224,0 M 2.376,2.681 L 10.846,2.681 M 1.096,1.523 L 12.186,1.523 M -0.672,-1.646 L 13.953,-1.646 M 0.729,-8.41 L 12.49,-8.41 M -0.61,-5.972 L 13.831,-5.972 M -0.976,-3.535 L 14.198,-3.535"
         style="fill:none;stroke:#005697;stroke-width:0.366;stroke-linecap:butt;stroke-linejoin:miter;stroke-miterlimit:4;stroke-dasharray:none;stroke-opacity:1"
         id="path2896" />
    </g>
    <g
       id="g2898"
       transform="matrix(4.3543112,0,0,-4.3543112,373.54183,159.77936)">
      <path
         d="M 0,0 L 3.109,3.169 L 6.278,0 M 3.109,-11.212 L 3.109,3.169 M -4.447,-3.656 C -4.447,0.488 -1.035,3.899 3.109,3.899 C 7.313,3.899 10.787,0.488 10.787,-3.656 C 10.787,-7.861 7.313,-11.274 3.109,-11.274 C -1.035,-11.274 -4.447,-7.861 -4.447,-3.656 z"
         style="fill:none;stroke:#005697;stroke-width:0.366;stroke-linecap:butt;stroke-linejoin:miter;stroke-miterlimit:4;stroke-dasharray:none;stroke-opacity:1"
         id="path2900" />
    </g>
  </g>
</svg>
