<?xml version="1.0" encoding="UTF-8" standalone="no"?>
<!-- Created with Inkscape (http://www.inkscape.org/) -->

<svg
   xmlns:dc="http://purl.org/dc/elements/1.1/"
   xmlns:cc="http://creativecommons.org/ns#"
   xmlns:rdf="http://www.w3.org/1999/02/22-rdf-syntax-ns#"
   xmlns:svg="http://www.w3.org/2000/svg"
   xmlns="http://www.w3.org/2000/svg"
   version="1.1"
   width="538.58264"
   height="314.29132"
   id="svg12609">
  <defs
     id="defs12611" />
  <metadata
     id="metadata12614">
    <rdf:RDF>
      <cc:Work
         rdf:about="">
        <dc:format>image/svg+xml</dc:format>
        <dc:type
           rdf:resource="http://purl.org/dc/dcmitype/StillImage" />
        <dc:title></dc:title>
      </cc:Work>
    </rdf:RDF>
  </metadata>
  <g
     transform="translate(-138.94158,-362.4748)"
     id="layer1">
    <g
       transform="matrix(4.979183,0,0,4.979183,-1981.7749,-2415.633)"
       id="g13941">
      <path
         d="m 533.16056,595.20056 0.21125,-0.0588 0,2.1025 c -18.13,4.915 -31.22125,3.56125 -49.32375,0.0487 -15.6325,-3.035 -27.5225,-5.25375 -43.1725,-0.0263 l 0,-2.14 c 15.69,-5.10125 27.9325,-2.85625 43.5775,0.18 17.68375,3.4325 30.68,4.86 48.7075,-0.10625"
         id="path7490"
         style="fill:#5881ca;fill-opacity:1;fill-rule:nonzero;stroke:none" />
      <path
         d="m 506.84181,595.80556 -0.0713,-6.64875 c 0,-1.99625 -1.65875,-3.61625 -3.70375,-3.61625 -2.04625,0 -3.70375,1.62 -3.70375,3.6175 l -0.0663,6.0275 c -3.98875,-0.46375 -7.86,-1.10875 -11.67125,-1.7925 1.63625,-4.41375 2.46375,-7.935 2.80625,-12.95 l 25.28375,0 c 0.36125,5.22375 1.56375,10.145 3.37875,15.04125 -4.25125,0.43 -8.32,0.49625 -12.2525,0.32125"
         id="path7492"
         style="fill:#ed1c24;fill-opacity:1;fill-rule:nonzero;stroke:none" />
      <path
         d="m 495.57181,565.74931 -1.34375,0 -0.67125,1.135 -0.67125,-1.135 -1.3425,0 0.67125,-1.13625 -0.67125,-1.135 1.3425,0 0.67125,-1.13625 0.67125,1.13625 1.34375,0 -0.6725,1.135 0.6725,1.13625"
         id="path7494"
         style="fill:#ed1c24;fill-opacity:1;fill-rule:nonzero;stroke:none" />
      <path
         d="m 514.60431,565.74931 -1.3425,0 -0.67125,1.135 -0.67125,-1.135 -1.3425,0 0.67125,-1.13625 -0.67125,-1.135 1.3425,0 0.67125,-1.13625 0.67125,1.13625 1.3425,0 -0.67125,1.135 0.67125,1.13625"
         id="path7496"
         style="fill:#ed1c24;fill-opacity:1;fill-rule:nonzero;stroke:none" />
      <path
         d="m 499.62056,566.23181 0,-0.115 c 0,-1.59125 1.14,-2.92 2.66125,-3.26625 l 0,-1.45125 -1.24875,0 0,-1.35375 1.24875,0 0,-1.3925 1.58375,0 0,1.3925 1.24875,0 0,1.35375 -1.24875,0 0,1.4475 c 1.62,0.35 2.57125,1.765 2.655,3.385 l 1.3375,0 0,1.7325 -1.5,0 0,9.275 3.24,0 0,-9.275 5.985,0 0,9.275 1.88625,0 0,1.79 -28.79,0 0,-1.79 1.885,0 0,-9.275 5.98625,0 0,9.275 3.23875,0 0,-9.275 -1.5,0 0,-1.7325 1.33125,0"
         id="path7498"
         style="fill:#ed1c24;fill-opacity:1;fill-rule:nonzero;stroke:none" />
      <g
         id="text7500"
         style="font-size:15px;fill:#1b3653;fill-opacity:1">
        <path
           d="m 426.62818,617.3183 0,-10.33582 1.36777,0 0,4.24431 5.37237,0 0,-4.24431 1.36777,0 0,10.33582 -1.36777,0 0,-4.8718 -5.37237,0 0,4.8718 z"
           id="path13409"
           style="font-size:14.43912506px;font-variant:normal;font-weight:bold;writing-mode:lr-tb;fill:#1b3653;fill-opacity:1;fill-rule:nonzero;stroke:none;font-family:Univers;-inkscape-font-specification:Univers-Bold" />
        <path
           d="m 441.80687,616.3947 c -0.47003,0.39952 -0.92243,0.68154 -1.35719,0.84604 -0.43478,0.16451 -0.90128,0.24677 -1.3995,0.24677 -0.82254,0 -1.45472,-0.20094 -1.89654,-0.60281 -0.44183,-0.40187 -0.66274,-0.91537 -0.66274,-1.5405 0,-0.36662 0.0834,-0.70151 0.25029,-1.00468 0.16686,-0.30316 0.38542,-0.5464 0.65568,-0.72971 0.27027,-0.1833 0.57461,-0.32196 0.91302,-0.41597 0.24911,-0.0658 0.62513,-0.12925 1.12806,-0.19036 1.02465,-0.1222 1.77904,-0.26791 2.26317,-0.43712 0.005,-0.1739 0.007,-0.28436 0.007,-0.33137 -1e-5,-0.51702 -0.11987,-0.88129 -0.35957,-1.0928 -0.32432,-0.28671 -0.8061,-0.43007 -1.44533,-0.43007 -0.59693,0 -1.03758,0.10458 -1.32194,0.31374 -0.28436,0.20916 -0.4947,0.57931 -0.631,1.11043 l -1.24087,-0.16921 c 0.11281,-0.53112 0.29847,-0.96002 0.55698,-1.28669 0.25851,-0.32666 0.63218,-0.57812 1.12101,-0.75439 0.48882,-0.17625 1.0552,-0.26438 1.69913,-0.26439 0.63923,10e-6 1.15861,0.0752 1.55813,0.22562 0.39952,0.15041 0.69328,0.33959 0.8813,0.56755 0.188,0.22797 0.31961,0.51586 0.39482,0.86367 0.0423,0.21621 0.0634,0.60633 0.0634,1.17036 l 0,1.69208 c -10e-6,1.17976 0.027,1.92592 0.0811,2.23849 0.054,0.31256 0.16097,0.6122 0.32079,0.89892 l -1.32547,0 c -0.13161,-0.26321 -0.21621,-0.57108 -0.25381,-0.9236 z m -0.10575,-2.83424 c -0.46063,0.18801 -1.15157,0.34782 -2.07281,0.47942 -0.52173,0.0752 -0.8907,0.15981 -1.1069,0.25382 -0.21622,0.094 -0.38308,0.23149 -0.50058,0.41244 -0.11751,0.18096 -0.17626,0.3819 -0.17626,0.60281 0,0.33842 0.12808,0.62043 0.38425,0.84604 0.25616,0.22561 0.631,0.33842 1.12453,0.33842 0.48882,0 0.92359,-0.10693 1.30431,-0.32079 0.38072,-0.21386 0.66038,-0.50645 0.83899,-0.87777 0.13631,-0.28672 0.20446,-0.70974 0.20447,-1.26907 z"
           id="path13411"
           style="font-size:14.43912506px;font-variant:normal;font-weight:bold;writing-mode:lr-tb;fill:#1b3653;fill-opacity:1;fill-rule:nonzero;stroke:none;font-family:Univers;-inkscape-font-specification:Univers-Bold" />
        <path
           d="m 445.32448,617.3183 0,-6.50043 -1.121,0 0,-0.98705 1.121,0 0,-0.79669 c 0,-0.50291 0.0446,-0.87658 0.13396,-1.121 0.1222,-0.32901 0.33724,-0.59575 0.64511,-0.80022 0.30786,-0.20445 0.73911,-0.30668 1.29374,-0.30669 0.35721,10e-6 0.75203,0.0423 1.18446,0.12691 l -0.19036,1.1069 c -0.26322,-0.047 -0.51233,-0.0705 -0.74734,-0.0705 -0.38542,1e-5 -0.65804,0.0823 -0.81784,0.24676 -0.15981,0.16452 -0.23972,0.47238 -0.23971,0.9236 l 0,0.69093 1.45942,0 0,0.98705 -1.45942,0 0,6.50043 z"
           id="path13413"
           style="font-size:14.43912506px;font-variant:normal;font-weight:bold;writing-mode:lr-tb;fill:#1b3653;fill-opacity:1;fill-rule:nonzero;stroke:none;font-family:Univers;-inkscape-font-specification:Univers-Bold" />
        <path
           d="m 455.02736,614.90708 1.31136,0.16216 c -0.20682,0.76614 -0.58988,1.36071 -1.14921,1.78373 -0.55933,0.42303 -1.27376,0.63454 -2.1433,0.63454 -1.09516,0 -1.96353,-0.33724 -2.60511,-1.01173 -0.64158,-0.67448 -0.96237,-1.6204 -0.96237,-2.83777 0,-1.25965 0.32431,-2.2373 0.97295,-2.93294 0.64863,-0.69563 1.48997,-1.04345 2.52402,-1.04346 1.00115,10e-6 1.81899,0.34078 2.45353,1.02231 0.63452,0.68154 0.95179,1.64038 0.95179,2.87654 0,0.0752 -0.002,0.18801 -0.007,0.33842 l -5.58388,0 c 0.047,0.82254 0.27967,1.45237 0.69799,1.88949 0.41832,0.43712 0.94004,0.65569 1.56518,0.65568 0.46532,1e-5 0.86249,-0.1222 1.19151,-0.36661 0.32901,-0.24441 0.58987,-0.63453 0.78259,-1.17036 z m -4.16676,-2.05166 4.18086,0 c -0.0564,-0.62982 -0.21622,-1.1022 -0.47943,-1.41712 -0.40422,-0.48882 -0.9283,-0.73323 -1.57223,-0.73323 -0.58283,0 -1.07283,0.19506 -1.46999,0.58518 -0.39718,0.39012 -0.61691,0.91185 -0.65921,1.56517 z"
           id="path13415"
           style="font-size:14.43912506px;font-variant:normal;font-weight:bold;writing-mode:lr-tb;fill:#1b3653;fill-opacity:1;fill-rule:nonzero;stroke:none;font-family:Univers;-inkscape-font-specification:Univers-Bold" />
        <path
           d="m 458.00209,617.3183 0,-7.48748 1.14216,0 0,1.06461 c 0.54992,-0.82254 1.34426,-1.23381 2.38302,-1.23382 0.45122,10e-6 0.86601,0.0811 1.24439,0.24324 0.37836,0.16217 0.66155,0.37485 0.84956,0.63806 0.18801,0.26322 0.31961,0.57578 0.39482,0.9377 0.047,0.23501 0.0705,0.64628 0.0705,1.23381 l 0,4.60388 -1.26907,0 0,-4.55453 c 0,-0.51702 -0.0494,-0.90362 -0.14805,-1.15978 -0.0987,-0.25616 -0.2738,-0.46062 -0.52526,-0.61338 -0.25146,-0.15276 -0.5464,-0.22913 -0.88482,-0.22914 -0.54053,10e-6 -1.00702,0.17156 -1.39949,0.51467 -0.39247,0.34313 -0.58871,0.99411 -0.58871,1.95295 l 0,4.08921 z"
           id="path13417"
           style="font-size:14.43912506px;font-variant:normal;font-weight:bold;writing-mode:lr-tb;fill:#1b3653;fill-opacity:1;fill-rule:nonzero;stroke:none;font-family:Univers;-inkscape-font-specification:Univers-Bold" />
        <path
           d="m 471.18732,617.3183 0,-10.33582 1.36777,0 0,4.24431 5.37237,0 0,-4.24431 1.36777,0 0,10.33582 -1.36777,0 0,-4.8718 -5.37237,0 0,4.8718 z"
           id="path13419"
           style="font-size:14.43912506px;font-variant:normal;font-weight:bold;writing-mode:lr-tb;fill:#1b3653;fill-opacity:1;fill-rule:nonzero;stroke:none;font-family:Univers;-inkscape-font-specification:Univers-Bold" />
        <path
           d="m 486.36601,616.3947 c -0.47003,0.39952 -0.92242,0.68154 -1.35719,0.84604 -0.43478,0.16451 -0.90127,0.24677 -1.39949,0.24677 -0.82255,0 -1.45473,-0.20094 -1.89655,-0.60281 -0.44182,-0.40187 -0.66273,-0.91537 -0.66273,-1.5405 0,-0.36662 0.0834,-0.70151 0.25028,-1.00468 0.16686,-0.30316 0.38542,-0.5464 0.65569,-0.72971 0.27026,-0.1833 0.5746,-0.32196 0.91302,-0.41597 0.24911,-0.0658 0.62513,-0.12925 1.12805,-0.19036 1.02465,-0.1222 1.77904,-0.26791 2.26317,-0.43712 0.005,-0.1739 0.007,-0.28436 0.007,-0.33137 -1e-5,-0.51702 -0.11986,-0.88129 -0.35957,-1.0928 -0.32432,-0.28671 -0.80609,-0.43007 -1.44532,-0.43007 -0.59694,0 -1.03758,0.10458 -1.32194,0.31374 -0.28437,0.20916 -0.49471,0.57931 -0.63101,1.11043 l -1.24086,-0.16921 c 0.1128,-0.53112 0.29846,-0.96002 0.55698,-1.28669 0.25851,-0.32666 0.63218,-0.57812 1.121,-0.75439 0.48882,-0.17625 1.0552,-0.26438 1.69914,-0.26439 0.63922,10e-6 1.1586,0.0752 1.55813,0.22562 0.39951,0.15041 0.69327,0.33959 0.88129,0.56755 0.188,0.22797 0.31961,0.51586 0.39482,0.86367 0.0423,0.21621 0.0635,0.60633 0.0635,1.17036 l 0,1.69208 c 0,1.17976 0.027,1.92592 0.0811,2.23849 0.054,0.31256 0.16098,0.6122 0.32079,0.89892 l -1.32546,0 c -0.13162,-0.26321 -0.21622,-0.57108 -0.25382,-0.9236 z m -0.10575,-2.83424 c -0.46063,0.18801 -1.15156,0.34782 -2.07281,0.47942 -0.52173,0.0752 -0.89069,0.15981 -1.1069,0.25382 -0.21621,0.094 -0.38307,0.23149 -0.50058,0.41244 -0.1175,0.18096 -0.17626,0.3819 -0.17626,0.60281 0,0.33842 0.12808,0.62043 0.38425,0.84604 0.25616,0.22561 0.631,0.33842 1.12453,0.33842 0.48882,0 0.92359,-0.10693 1.30432,-0.32079 0.38071,-0.21386 0.66037,-0.50645 0.83899,-0.87777 0.1363,-0.28672 0.20445,-0.70974 0.20446,-1.26907 z"
           id="path13421"
           style="font-size:14.43912506px;font-variant:normal;font-weight:bold;writing-mode:lr-tb;fill:#1b3653;fill-opacity:1;fill-rule:nonzero;stroke:none;font-family:Univers;-inkscape-font-specification:Univers-Bold" />
        <path
           d="m 489.58046,617.3183 0,-7.48748 1.13511,0 0,1.05051 c 0.23501,-0.36662 0.54757,-0.66156 0.93769,-0.88482 0.39012,-0.22326 0.83429,-0.33489 1.33252,-0.3349 0.55462,10e-6 1.00937,0.11517 1.36424,0.34547 0.35487,0.23032 0.60515,0.55229 0.75087,0.9659 0.59222,-0.87424 1.36306,-1.31136 2.31251,-1.31137 0.74263,10e-6 1.31371,0.20565 1.71324,0.61691 0.39951,0.41128 0.59927,1.04463 0.59928,1.90007 l 0,5.13971 -1.26201,0 0,-4.71669 c -10e-6,-0.50762 -0.0411,-0.87306 -0.12339,-1.09633 -0.0823,-0.22325 -0.23149,-0.40304 -0.44769,-0.53935 -0.21622,-0.1363 -0.47004,-0.20445 -0.76144,-0.20446 -0.52644,10e-6 -0.96356,0.17509 -1.31137,0.52525 -0.34782,0.35017 -0.52173,0.91068 -0.52172,1.68151 l 0,4.35007 -1.26907,0 0,-4.86475 c 0,-0.56402 -0.10341,-0.98704 -0.31021,-1.26906 -0.20682,-0.28201 -0.54523,-0.42301 -1.01525,-0.42302 -0.35722,10e-6 -0.68742,0.094 -0.99058,0.28201 -0.30317,0.18802 -0.5229,0.46298 -0.65921,0.82489 -0.13631,0.36193 -0.20446,0.88365 -0.20446,1.56518 l 0,3.88475 z"
           id="path13423"
           style="font-size:14.43912506px;font-variant:normal;font-weight:bold;writing-mode:lr-tb;fill:#1b3653;fill-opacity:1;fill-rule:nonzero;stroke:none;font-family:Univers;-inkscape-font-specification:Univers-Bold" />
        <path
           d="m 504.45355,617.3183 -1.17741,0 0,-10.33582 1.26906,0 0,3.68733 c 0.53583,-0.67212 1.21971,-1.00819 2.05165,-1.0082 0.46062,10e-6 0.89657,0.0928 1.30785,0.27849 0.41126,0.18567 0.74968,0.44653 1.01525,0.78259 0.26555,0.33608 0.47354,0.74147 0.62395,1.21619 0.1504,0.47473 0.22561,0.98235 0.22561,1.52287 0,1.28317 -0.31727,2.27492 -0.95179,2.97525 -0.63454,0.70034 -1.39598,1.05051 -2.28432,1.05051 -0.88365,0 -1.57693,-0.36897 -2.07985,-1.10691 z m -0.0141,-3.80014 c -1e-5,0.89775 0.1222,1.54638 0.36661,1.9459 0.39952,0.65333 0.94005,0.98 1.62159,0.97999 0.55462,1e-5 1.03404,-0.24088 1.43827,-0.72266 0.40421,-0.48177 0.60632,-1.19973 0.60633,-2.15388 -10e-6,-0.97764 -0.19389,-1.69913 -0.58166,-2.16446 -0.38777,-0.46532 -0.85662,-0.69798 -1.40654,-0.69798 -0.55463,0 -1.03406,0.24089 -1.43827,0.72266 -0.40423,0.48178 -0.60634,1.17859 -0.60633,2.09043 z"
           id="path13425"
           style="font-size:14.43912506px;font-variant:normal;font-weight:bold;writing-mode:lr-tb;fill:#1b3653;fill-opacity:1;fill-rule:nonzero;stroke:none;font-family:Univers;-inkscape-font-specification:Univers-Bold" />
        <path
           d="m 517.08474,617.3183 0,-1.09986 c -0.58284,0.84605 -1.37483,1.26907 -2.37597,1.26907 -0.44183,0 -0.85427,-0.0846 -1.23734,-0.25382 -0.38307,-0.1692 -0.66744,-0.38189 -0.85309,-0.63805 -0.18566,-0.25616 -0.3161,-0.56991 -0.3913,-0.94123 -0.0517,-0.24911 -0.0775,-0.64393 -0.0775,-1.18445 l 0,-4.63914 1.26906,0 0,4.15266 c 0,0.66274 0.0258,1.10926 0.0776,1.33957 0.0799,0.33372 0.24911,0.59575 0.50762,0.78611 0.25851,0.19036 0.57813,0.28554 0.95885,0.28554 0.38071,0 0.73793,-0.0975 1.07165,-0.29259 0.33371,-0.19506 0.5699,-0.46062 0.70856,-0.79669 0.13865,-0.33606 0.20798,-0.82371 0.20799,-1.46295 l 0,-4.01165 1.26906,0 0,7.48748 z"
           id="path13427"
           style="font-size:14.43912506px;font-variant:normal;font-weight:bold;writing-mode:lr-tb;fill:#1b3653;fill-opacity:1;fill-rule:nonzero;stroke:none;font-family:Univers;-inkscape-font-specification:Univers-Bold" />
        <path
           d="m 521.05812,617.3183 0,-7.48748 1.14216,0 0,1.13511 c 0.29141,-0.53112 0.5605,-0.88129 0.80726,-1.0505 0.24676,-0.1692 0.5182,-0.25381 0.81432,-0.25382 0.42772,10e-6 0.86249,0.13632 1.30431,0.40892 l -0.43712,1.17741 c -0.31022,-0.1833 -0.62043,-0.27495 -0.93064,-0.27496 -0.27732,10e-6 -0.52643,0.0834 -0.74734,0.25029 -0.22092,0.16686 -0.37837,0.39835 -0.47238,0.69446 -0.14101,0.45122 -0.21151,0.94475 -0.21151,1.48057 l 0,3.92 z"
           id="path13429"
           style="font-size:14.43912506px;font-variant:normal;font-weight:bold;writing-mode:lr-tb;fill:#1b3653;fill-opacity:1;fill-rule:nonzero;stroke:none;font-family:Univers;-inkscape-font-specification:Univers-Bold" />
        <path
           d="m 526.52852,617.93873 1.23382,0.18331 c 0.0517,0.38072 0.19505,0.65803 0.43007,0.83194 0.31491,0.23501 0.74498,0.35252 1.29021,0.35252 0.58753,0 1.0411,-0.11751 1.36072,-0.35252 0.31961,-0.23501 0.53582,-0.56403 0.64863,-0.98705 0.0658,-0.25851 0.0963,-0.80139 0.0917,-1.62863 -0.55464,0.65333 -1.24557,0.98 -2.07281,0.98 -1.02935,0 -1.82604,-0.37132 -2.39007,-1.11396 -0.56403,-0.74263 -0.84604,-1.63333 -0.84604,-2.67208 0,-0.71443 0.12926,-1.37364 0.38777,-1.97763 0.25851,-0.60397 0.63336,-1.07047 1.12453,-1.39949 0.49117,-0.32901 1.06813,-0.49352 1.73086,-0.49353 0.88364,10e-6 1.61218,0.35723 2.18561,1.07166 l 0,-0.90245 1.17036,0 0,6.47223 c -10e-6,1.16566 -0.11869,1.99172 -0.35604,2.4782 -0.23737,0.48647 -0.61339,0.87071 -1.12806,1.15273 -0.51468,0.28201 -1.14803,0.42302 -1.90007,0.42302 -0.89305,0 -1.61453,-0.20094 -2.16446,-0.6028 -0.54993,-0.40188 -0.81549,-1.00703 -0.79669,-1.81547 z m 1.05051,-4.49813 c -10e-6,0.98236 0.19505,1.69914 0.58518,2.15036 0.39011,0.45123 0.87894,0.67684 1.46647,0.67684 0.58282,0 1.07165,-0.22444 1.46647,-0.67331 0.39482,-0.44887 0.59223,-1.15273 0.59223,-2.11158 0,-0.91655 -0.20329,-1.60748 -0.60985,-2.07281 -0.40658,-0.46532 -0.89658,-0.69798 -1.47,-0.69798 -0.56403,0 -1.04346,0.22914 -1.43827,0.68741 -0.39483,0.45827 -0.59224,1.13863 -0.59223,2.04107 z"
           id="path13431"
           style="font-size:14.43912506px;font-variant:normal;font-weight:bold;writing-mode:lr-tb;fill:#1b3653;fill-opacity:1;fill-rule:nonzero;stroke:none;font-family:Univers;-inkscape-font-specification:Univers-Bold" />
      </g>
    </g>
  </g>
</svg>
