<?xml version="1.0" encoding="UTF-8" standalone="no"?>
<!-- Created with Inkscape (http://www.inkscape.org/) -->

<svg
   xmlns:dc="http://purl.org/dc/elements/1.1/"
   xmlns:cc="http://creativecommons.org/ns#"
   xmlns:rdf="http://www.w3.org/1999/02/22-rdf-syntax-ns#"
   xmlns:svg="http://www.w3.org/2000/svg"
   xmlns="http://www.w3.org/2000/svg"
   version="1.1"
   width="467.62088"
   height="399.65167"
   id="svg8053">
  <defs
     id="defs8055" />
  <metadata
     id="metadata8058">
    <rdf:RDF>
      <cc:Work
         rdf:about="">
        <dc:format>image/svg+xml</dc:format>
        <dc:type
           rdf:resource="http://purl.org/dc/dcmitype/StillImage" />
        <dc:title></dc:title>
      </cc:Work>
    </rdf:RDF>
  </metadata>
  <g
     transform="translate(-116.18957,-332.53634)"
     id="layer1">
    <path
       d="m 298.82207,592.9708 c 0,-9.08425 -2.50525,-16.49321 -13.57037,-16.49321 -7.40901,0 -11.58951,3.65101 -14.4055,5.94754 l 0,-21.82969 c 0,-1.77205 -0.20363,-2.18959 -1.03875,-2.18959 -0.21388,0 -1.15075,0.31062 -1.46138,0.31062 l -8.76862,1.78222 c -1.25263,0.30553 -1.991,0.30553 -1.991,1.87388 l 0,65.98301 c 0,1.14572 0.21387,1.45634 1.4615,1.45634 l 10.342,0 c 1.25262,0 1.45625,-0.31062 1.45625,-1.45634 l 0,-36.54068 c 1.35962,-1.25265 4.49125,-4.37917 8.8755,-4.37917 5.32125,0 5.84575,4.80691 5.84575,8.76854 l 0,32.15131 c 0,1.14572 0.20875,1.45634 1.46137,1.45634 l 10.33188,0 c 1.25262,0 1.46137,-0.31062 1.46137,-1.45634 l 0,-35.38478 z m 81.7175,0 c 0,-9.08425 -2.28637,-16.49321 -12.09875,-16.49321 -8.55975,0 -13.04588,4.48611 -16.18263,7.20019 -1.24237,-4.37918 -6.15112,-7.20019 -10.64237,-7.20019 -8.24412,0 -12.83712,4.48611 -15.97387,7.20019 -1.14563,-4.90875 -1.98075,-7.20019 -3.34038,-7.20019 -0.40737,0 -0.93687,0.107 -1.56837,0.31571 l -7.92825,2.60205 c -0.72825,0.21387 -1.14575,0.62633 -1.14575,1.1559 0,2.39837 1.98587,1.56327 1.98587,16.27934 l 0,31.52499 c 0,1.14572 0.20375,1.45634 1.45638,1.45634 l 10.33687,0 c 1.25263,0 1.46138,-0.31062 1.46138,-1.45634 l 0,-36.63743 c 1.3545,-1.25265 4.80187,-4.28242 9.18612,-4.28242 3.96163,0 4.37913,4.80691 4.37913,8.76854 l 0,32.15131 c 0,1.14572 0.20887,1.45634 1.4615,1.45634 l 10.33175,0 c 1.25262,0 1.47162,-0.31062 1.47162,-1.45634 l 0,-36.63743 c 1.34438,-1.25265 4.79675,-4.28242 9.181,-4.28242 3.96163,0 4.37925,4.80691 4.37925,8.76854 l 0,32.15131 c 0,1.14572 0.20363,1.45634 1.46138,1.45634 l 10.342,0 c 1.25262,0 1.44612,-0.31062 1.44612,-1.45634 l 0,-35.38478 z m 42.91087,25.25665 c -0.1075,-0.41245 -0.42262,-0.62631 -0.83512,-0.62631 -1.4665,0 -4.07363,1.9859 -8.244,1.9859 -3.55938,0 -3.55938,-3.02469 -3.55938,-6.36509 l 0,-25.26683 10.33688,0 c 1.25262,0 1.56837,-0.10188 1.879,-1.56327 l 1.3595,-6.15631 c 0.1025,-0.41755 0.1025,-0.62632 0.1025,-0.84019 0,-1.14571 -0.83,-1.14571 -1.772,-1.14571 l -11.90525,0 0,-18.77446 c 0,-1.25265 -0.0962,-1.77204 -1.03375,-1.77204 -0.62625,0 -1.04887,0.107 -1.3595,0.107 l -9.181,1.24755 c -1.47163,0.21388 -1.67538,0.52449 -1.67538,1.87898 l 0,17.31303 -7.40887,0 c -1.25775,0 -1.46663,0.3157 -1.46663,1.46142 l 0,6.78773 c 0,1.14572 0.20888,1.45633 1.46663,1.45633 l 7.40887,0 0,23.48971 c 0,9.60364 0,20.13913 13.4685,20.13913 7.08825,0 14.71613,-1.97573 14.71613,-3.96163 0,-0.31571 -0.10625,-0.31571 -0.20875,-0.8351 l -2.08775,-8.55977 z m -237.85125,11.59877 9.74113,0 0,-292.28979 -9.74113,0 0,292.28979 z m -15.15912,0 9.74625,0 0,-292.28979 -9.74625,0 0,292.28979 z m -15.14888,0 9.74113,0 0,-292.28979 -9.74113,0 0,292.28979 z m 45.467,0 28.68875,0 0,-292.28979 -28.68875,0 0,292.28979 z m -79.56862,0.005 28.6785,0 0,-292.29488 -28.6785,0 0,292.29488 z"
       id="path2734"
       style="fill:#db0132;fill-opacity:1;fill-rule:nonzero;stroke:none" />
    <path
       d="m 567.84932,725.30957 c 0.0763,0.112 0.26475,0.2597 0.26475,0.4532 0,0.15785 -0.14762,0.19858 -0.224,0.26987 l -1.33925,0.92166 c -0.14762,0.0713 -0.3055,0.21897 -0.45313,0.21897 -0.1935,0 -0.34625,-0.18842 -0.41762,-0.30553 l -7.78575,-9.61382 -0.0863,0 0,8.93148 c 0,0.30553 -0.14775,0.46338 -0.45325,0.46338 l -1.98587,0 c -0.3055,0 -0.45325,-0.15785 -0.45325,-0.46338 l 0,-26.18341 c 0,-0.26989 0.1125,-0.41755 0.26475,-0.45829 l 1.90962,-0.45828 c 0.3055,-0.0764 0.18838,-0.0408 0.45825,-0.0764 0.25975,0 0.25975,0.30553 0.25975,0.49393 l 0,17.21118 7.60238,-8.62086 c 0.1125,-0.11712 0.22412,-0.30552 0.41762,-0.30552 0.15275,0 0.3055,0.14766 0.45825,0.23422 l 1.33925,0.90639 c 0.0763,0.0815 0.224,0.12225 0.224,0.26989 0,0.1935 -0.14762,0.34116 -0.26475,0.46337 l -6.44662,7.13399 6.71137,8.51394 z m -17.02937,-0.42519 c 0.0412,0.11712 0.11249,0.1935 0.11249,0.30552 0,0.42264 -3.20799,1.9859 -6.029,1.9859 -4.537,0 -7.17475,-3.54916 -7.17475,-9.12497 0,-6.37019 3.05025,-10.26561 7.74513,-10.26561 2.56125,0 5.49425,1.79241 5.49425,2.36781 0,0.112 -0.0713,0.1935 -0.10625,0.30552 l -0.88601,1.604 c -0.0713,0.112 -0.11249,0.22914 -0.21899,0.22914 -0.15788,0 -1.80263,-1.94516 -4.05325,-1.94516 -3.73763,0 -4.84763,2.78026 -4.84763,7.13907 0,3.4677 0.68225,7.13908 4.39438,7.13908 2.47475,0 4.46062,-1.56835 4.69487,-1.56835 0.11751,0 0.15275,0.112 0.22913,0.22405 l 0.64675,1.604 z m -20.28125,-7.5556 c 0,-3.73758 -1.03375,-7.17473 -4.46063,-7.17473 -3.43713,0 -4.47088,3.27929 -4.47088,7.0627 0,4.34863 0.998,7.59228 4.5065,7.59228 3.39125,0 4.425,-3.0858 4.425,-7.48025 m -4.69487,9.84806 c -5.14813,0 -7.36825,-4.16022 -7.36825,-9.61382 0,-5.2652 2.22012,-9.77678 7.75012,-9.77678 5.22963,0 7.44463,4.20605 7.44463,9.58328 0,5.34157 -2.25575,9.80732 -7.8265,9.80732 m -9.4325,-1.94925 c 0.035,0.15785 0.0763,0.26479 0.0763,0.39209 0,0.48375 -2.86175,1.55817 -4.92913,1.55817 -1.6345,0 -3.00937,-0.60596 -3.58475,-1.33921 -1.11012,-1.17627 -1.11012,-2.90247 -1.11012,-4.31299 l 0,-10.83591 -2.85663,0 c -0.26987,0 -0.26987,-0.26989 -0.26987,-0.46339 l 0,-1.44613 c 0,-0.26989 0,-0.46339 0.26987,-0.46339 l 2.85663,0 0,-5.22955 c 0,-0.21896 0.15787,-0.37681 0.42262,-0.45319 l 2.02663,-0.57031 c 0.1075,0 0.18337,-0.0408 0.26487,-0.0408 0.18838,0 0.18838,0.1935 0.18838,0.41755 l 0,5.87624 5.65212,0 c 0.22413,0 0.41763,0.0459 0.41763,0.26988 0,0.0815 -0.0362,0.15785 -0.0362,0.26988 l -0.49913,1.49197 c -0.0762,0.18332 -0.26987,0.34118 -0.49387,0.34118 l -5.04113,0 0,10.83591 c 0,1.53271 0,3.10108 2.28638,3.10108 1.7975,0 3.325,-1.04388 3.67137,-1.04388 0.14763,0 0.26475,0.1273 0.26475,0.23424 l 0.42263,1.4105 z m -16.26825,-14.38815 c -0.15788,0.30553 -0.23425,0.46338 -0.46338,0.46338 -0.25975,0 -1.86375,-1.03878 -3.84962,-1.03878 -1.52763,0 -2.82613,0.7689 -2.82613,2.52058 0,4.20095 8.47325,3.0145 8.47325,8.97221 0,3.58991 -2.82612,5.41796 -6.1105,5.41796 -1.82799,0 -5.805,-1.06424 -5.805,-1.82805 0,-0.1935 0.0863,-0.30552 0.15788,-0.46337 l 0.52962,-1.17628 c 0.1225,-0.26987 0.23425,-0.34625 0.35138,-0.34625 0.34625,0 2.327,1.33921 4.924,1.33921 1.64475,0 3.05525,-0.91657 3.05525,-2.75481 0,-3.96672 -8.47825,-3.08579 -8.47825,-8.85001 0,-3.09089 2.40337,-5.30594 5.76925,-5.30594 1.2985,0 3.50337,0.61105 4.5065,1.14063 0.29537,0.15785 0.4125,0.30552 0.4125,0.49902 0,0.112 -0.1175,0.22914 -0.15288,0.37681 l -0.49387,1.03369 z m -16.99925,6.48934 c 0,-3.73758 -1.03375,-7.17473 -4.46063,-7.17473 -3.43712,0 -4.47087,3.27929 -4.47087,7.0627 0,4.34863 0.998,7.59228 4.5065,7.59228 3.39125,0 4.425,-3.0858 4.425,-7.48025 m -4.69488,9.84806 c -5.14812,0 -7.36825,-4.16022 -7.36825,-9.61382 0,-5.2652 2.22013,-9.77678 7.75013,-9.77678 5.22962,0 7.44462,4.20605 7.44462,9.58328 0,5.34157 -2.25575,9.80732 -7.8265,9.80732 m -20.20337,-14.92027 c 2.82612,0 5.38237,-0.65179 5.38237,-4.73563 0,-4.24169 -2.74975,-4.34862 -4.919,-4.34862 l -2.93812,0 0,9.08425 2.47475,0 z m 9.80737,13.77403 c 0.0863,0.14768 0.15775,0.31063 0.15775,0.42265 0,0.11713 -0.15775,0.22914 -0.42762,0.26479 l -2.39838,0.45829 c -0.26987,0.0459 -0.45325,-0.0408 -0.5755,-0.30553 l -6.29887,-12.13948 -2.7395,0 0,11.44696 c 0,0.31061 -0.15788,0.46847 -0.4685,0.46847 l -2.215,0 c -0.3055,0 -0.45325,-0.15786 -0.45325,-0.46847 l 0,-25.22101 c 0,-0.30553 0.14775,-0.46338 0.45325,-0.46338 l 5.92712,0 c 2.93813,0 7.745,0.1935 7.745,6.95068 0,4.20095 -2.94312,6.32943 -5.04112,7.02196 l 6.33462,11.56407 z m -35.922,0.15175 c 0,0.30553 -0.15787,0.46338 -0.46337,0.46338 l -1.98588,0 c -0.3055,0 -0.45325,-0.15785 -0.45325,-0.46338 l 0,-13.0917 c 0,-0.68233 -0.1175,-1.95026 -0.65175,-2.90248 -0.3055,-0.52958 -0.42262,-0.8351 -0.42262,-0.9573 0.0462,-0.21897 0.1935,-0.33609 0.26987,-0.37683 l 1.41563,-0.88092 c 0.14762,-0.112 0.3055,-0.18332 0.38187,-0.18332 0.68738,0 1.33413,2.36273 1.48688,3.20292 0.98787,-1.07443 2.36775,-3.20292 4.57775,-3.20292 0.87587,0 1.86875,0.30553 1.86875,0.65179 0,0.0712 -0.0713,0.17823 -0.1075,0.30553 l -0.84525,1.94007 c -0.0412,0.0764 -0.0712,0.26988 -0.22925,0.26988 -0.18838,0 -0.5295,-0.34117 -1.25763,-0.34117 -1.32912,0 -2.6785,1.98082 -3.58487,2.97377 l 0,12.59268 z m -10.85275,-10.45707 c 0,-1.98591 -0.65175,-5.57073 -3.96675,-5.57073 -3.5135,0 -4.27725,3.6612 -4.27725,5.57073 l 8.244,0 z m 2.597,9.15554 c 0.0363,0.12225 0.1125,0.19858 0.1125,0.31061 0,0.42774 -3.20287,1.98591 -6.029,1.98591 -5.07687,-0.0408 -8.05562,-3.89544 -8.05562,-9.69021 0,-5.62164 2.826,-9.70039 7.55662,-9.70039 6.37525,0 6.95063,6.18686 6.95063,9.46616 0,0.53975 0,0.8351 -0.42263,0.8351 l -10.953,0 c 0,2.33217 0.9165,6.53312 5.27025,6.53312 2.47988,0 4.46575,-1.56327 4.68975,-1.56327 0.1175,0 0.15275,0.112 0.22913,0.22405 l 0.65187,1.59892 z m -15.69537,0.34677 c 0.0412,0.15785 0.0763,0.26479 0.0763,0.39209 0,0.48375 -2.86175,1.55817 -4.92913,1.55817 -1.6345,0 -3.00937,-0.60596 -3.58475,-1.33921 -1.11012,-1.17627 -1.11012,-2.90247 -1.11012,-4.31299 l 0,-10.83591 -2.85663,0 c -0.26987,0 -0.26987,-0.26989 -0.26987,-0.46339 l 0,-1.44613 c 0,-0.26989 0,-0.46339 0.26987,-0.46339 l 2.85663,0 0,-5.22955 c 0,-0.21896 0.15787,-0.37681 0.42262,-0.45319 l 2.02663,-0.57031 c 0.1125,0 0.18337,-0.0408 0.26487,-0.0408 0.18838,0 0.18838,0.1935 0.18838,0.41755 l 0,5.87624 5.65212,0 c 0.22413,0 0.42275,0.0459 0.42275,0.26988 0,0.0815 -0.0412,0.15785 -0.0412,0.26988 l -0.49912,1.49197 c -0.0763,0.18332 -0.26988,0.34118 -0.49388,0.34118 l -5.04112,0 0,10.83591 c 0,1.53271 0,3.10108 2.28637,3.10108 1.8025,0 3.325,-1.04388 3.67138,-1.04388 0.14762,0 0.26475,0.1273 0.26475,0.23424 l 0.42262,1.4105 z m -19.2515,-7.70481 c -1.67525,0.0356 -7.13913,0.0356 -7.13913,4.0431 0,1.52762 0.84537,3.24365 2.7905,3.24365 1.98588,0 3.73763,-1.83315 4.34863,-2.36273 l 0,-4.92402 z m 2.9025,3.09089 c 0,2.40345 0.1175,2.74971 0.46337,3.81905 0.14763,0.45318 0.68738,1.18136 0.68738,1.40541 0,0.15785 -0.1985,0.22914 -0.34625,0.30552 l -1.492,0.92167 c -0.14763,0.0713 -0.22913,0.10687 -0.3055,0.10687 -0.57538,0 -1.26275,-2.01645 -1.44613,-2.55112 -0.46337,0.42265 -2.32712,2.55112 -5.49937,2.55112 -3.0095,0 -4.95975,-1.98081 -4.95975,-5.37721 0,-6.45165 7.633,-6.56368 9.99575,-6.64515 l 0,-1.36978 c 0,-2.22013 -0.68738,-3.43205 -3.39638,-3.43205 -2.55625,0 -4.313,1.21192 -4.64912,1.21192 -0.1225,0 -0.23425,-0.0712 -0.275,-0.18332 l -0.499,-1.33412 c -0.0712,-0.19859 -0.1125,-0.30553 -0.1125,-0.50411 0,-0.64669 3.5135,-1.75168 5.95775,-1.75168 4.38936,0 5.87625,2.13358 5.87625,5.34159 l 0,7.48534 z m -19.3575,-4.88839 c 0,-1.98591 -0.64675,-5.57073 -3.97688,-5.57073 -3.50338,0 -4.27225,3.6612 -4.27225,5.57073 l 8.24913,0 z m 2.597,9.15554 c 0.035,0.12225 0.11249,0.19858 0.11249,0.31061 0,0.42774 -3.20799,1.98591 -6.03413,1.98591 -5.07174,-0.0408 -8.05049,-3.89544 -8.05049,-9.69021 0,-5.62164 2.821,-9.70039 7.55663,-9.70039 6.37012,0 6.9455,6.18686 6.9455,9.46616 0,0.53975 0,0.8351 -0.4175,0.8351 l -10.95813,0 c 0,2.33217 0.9165,6.53312 5.26513,6.53312 2.485,0 4.47086,-1.56327 4.7,-1.56327 0.1125,0 0.14775,0.112 0.23425,0.22405 l 0.64675,1.59892 z m -31.50113,-24.87984 c 0,-0.26479 0.1125,-0.41755 0.25974,-0.4532 l 1.90951,-0.46338 c 0.3055,-0.0764 0.1935,-0.0408 0.46337,-0.0764 0.25963,0 0.25963,0.30552 0.25963,0.49392 l 0,10.88175 c 1.22213,-0.99295 3.208,-2.59695 5.9985,-2.59695 4.23663,0 4.54725,2.97885 4.54725,5.72348 l 0,12.66907 c 0,0.31062 -0.15787,0.46847 -0.4685,0.46847 l -1.98088,0 c -0.30549,0 -0.45824,-0.15785 -0.45824,-0.46847 l 0,-12.74036 c 0,-1.64474 -0.4175,-3.09087 -2.48489,-3.09087 -2.47474,0 -4.19587,1.48687 -5.15324,2.32707 l 0,13.50416 c 0,0.31062 -0.14762,0.46847 -0.45312,0.46847 l -1.98588,0 c -0.30563,0 -0.45325,-0.15785 -0.45325,-0.46847 l 0,-26.17832 z m -10.01,3.17032 0,23.01105 c 0,0.30553 -0.15787,0.45829 -0.45325,0.45829 l -2.215,0 c -0.3055,0 -0.46337,-0.15276 -0.46337,-0.45829 l 0,-23.01105 -5.68789,0 c -0.30549,0 -0.46336,-0.15785 -0.46336,-0.46337 l 0,-1.71094 c 0,-0.27497 0.12737,-0.50411 0.53975,-0.50411 l 14.96562,0 c 0.26475,0 0.45325,0.0815 0.45325,0.30552 0,0.15785 -0.11251,0.30553 -0.14775,0.50412 l -0.53975,1.44615 c -0.11251,0.30552 -0.34112,0.42263 -0.611,0.42263 l -5.37725,0 z m -27.53887,8.43603 c -1.22213,-0.65179 -2.44425,-1.25774 -4.35375,-1.25774 -3.27925,0 -3.58476,3.73249 -3.58476,7.43951 0,3.2029 0.26476,6.83355 3.36076,6.83355 1.98074,0 3.66112,-1.68547 4.57775,-2.25578 l 0,-10.75954 z m 2.89736,9.00277 c 0,1.72622 0,2.86174 0.42264,3.81905 0.18836,0.45829 0.6875,1.18645 0.6875,1.4105 0,0.15787 -0.1885,0.22915 -0.34625,0.30553 l -1.48688,0.91657 c -0.14775,0.0712 -0.22412,0.112 -0.30051,0.112 -0.53461,0 -1.22211,-1.64473 -1.37487,-2.25068 -0.92162,0.64668 -2.79037,2.25068 -5.61137,2.25068 -4.08901,0 -5.95275,-4.57776 -5.95275,-9.3083 0,-5.49943 1.94013,-10.0772 6.37025,-10.0772 2.36275,0 3.66113,0.65179 4.69488,1.29848 l 0,-9.08425 c 0,-0.26988 0.1175,-0.41755 0.26475,-0.45319 l 1.87387,-0.46339 c 0.30563,-0.0764 0.1885,-0.0408 0.45838,-0.0764 0.30036,0 0.30036,0.30552 0.30036,0.48884 l 0,21.11171 z m -18.40486,5.57225 c 0,0.30553 -0.15275,0.46338 -0.45825,0.46338 l -1.986,0 c -0.30038,0 -0.45313,-0.15785 -0.45313,-0.46338 l 0,-12.75053 c 0,-1.63965 -0.42262,-3.0807 -2.485,-3.0807 -2.47975,0 -4.08375,1.4767 -5.04112,2.32198 l 0,13.50925 c 0,0.30553 -0.14763,0.46338 -0.45313,0.46338 l -1.986,0 c -0.3055,0 -0.45825,-0.15785 -0.45825,-0.46338 l 0,-13.163 c 0,-1.26282 0,-1.68037 -0.15275,-2.25577 -0.3055,-1.15081 -0.611,-1.41051 -0.611,-1.60401 0,-0.0764 0.035,-0.14767 0.18838,-0.26479 l 1.72112,-0.9573 c 0.0762,-0.0356 0.18838,-0.14768 0.3055,-0.14768 0.6875,0 1.14575,2.28634 1.18138,2.59187 1.26287,-0.98787 3.24362,-2.59187 6.14612,-2.59187 4.23663,0 4.54213,2.97378 4.54213,5.72349 l 0,12.66906 z m -22.5675,-17.40163 c 0,-0.26988 0.1125,-0.41755 0.26475,-0.46338 l 1.90961,-0.4532 c 0.30551,-0.0764 0.19339,-0.0408 0.45826,-0.0764 0.26475,0 0.26475,0.30552 0.26475,0.49392 l 0,13.59073 c 0,0.87583 0.0462,1.71603 0.42262,2.52057 0.22912,0.4532 0.72312,1.2221 0.72312,1.44615 0,0.15785 -0.18836,0.22915 -0.34124,0.30553 l -1.48688,0.91657 c -0.15275,0.0764 -0.22912,0.112 -0.30549,0.112 -0.57538,0 -0.99288,-1.36976 -1.41051,-2.2507 -1.07438,0.88094 -3.13675,2.2507 -5.30588,2.2507 -5.15825,0 -5.57587,-2.97377 -5.57587,-5.72349 l 0,-12.66906 c 0,-0.26987 0.11751,-0.41755 0.26475,-0.46337 l 1.90962,-0.4532 c 0.3055,-0.0764 0.1935,-0.0408 0.45825,-0.0764 0.26988,0 0.26988,0.30553 0.26988,0.49393 l 0,13.24447 c 0,1.64474 0.64675,3.09598 3.1265,3.09598 1.18137,0 3.62562,-1.26284 4.35375,-1.94518 l 0,-13.89625 z m 310.60037,-25.4807 c 0.0763,0.112 0.26475,0.2597 0.26475,0.4532 0,0.15785 -0.15275,0.19858 -0.22912,0.26987 l -1.33414,0.92166 c -0.15787,0.0713 -0.3055,0.21897 -0.46337,0.21897 -0.18838,0 -0.34113,-0.18842 -0.4125,-0.30553 l -7.79075,-9.61382 -0.0763,0 0,8.93148 c 0,0.30553 -0.15788,0.46338 -0.45326,0.46338 l -1.99612,0 c -0.30551,0 -0.45313,-0.15785 -0.45313,-0.46338 l 0,-26.18341 c 0,-0.26989 0.1175,-0.41755 0.26987,-0.45829 l 1.9095,-0.45828 c 0.3055,-0.0764 0.18325,-0.0408 0.45825,-0.0764 0.26489,0 0.26489,0.30553 0.26489,0.49393 l 0,17.21118 7.59224,-8.62086 c 0.1225,-0.11712 0.23425,-0.30552 0.42776,-0.30552 0.14761,0 0.30036,0.14766 0.45824,0.23422 l 1.329,0.90639 c 0.0762,0.0815 0.23425,0.12225 0.23425,0.26989 0,0.1935 -0.15788,0.34116 -0.26474,0.46337 l -6.45676,7.13399 6.7215,8.51394 z m -20.96762,-21.37753 c -1.2985,0 -2.32713,-1.03369 -2.32713,-2.32707 0,-1.29848 1.02863,-2.32708 2.32713,-2.32708 1.2985,0 2.33212,1.06934 2.33212,2.32708 0,1.26283 -1.03362,2.32707 -2.33212,2.32707 m 1.64987,22.24725 c 0,0.30551 -0.15787,0.46338 -0.46337,0.46338 l -1.986,0 c -0.3055,0 -0.45313,-0.15787 -0.45313,-0.46338 l 0,-15.49007 -2.984,0 c -0.30037,0 -0.45825,-0.15277 -0.45825,-0.46338 l 0,-1.44615 c 0,-0.30552 0.15788,-0.46337 0.45825,-0.46337 l 5.38738,0 c 0.4125,0 0.49912,0.23422 0.49912,0.5754 l 0,17.28757 z m -9.43712,-15.33986 c -0.15788,0.30552 -0.23425,0.46337 -0.46338,0.46337 -0.25975,0 -1.86375,-1.03877 -3.84962,-1.03877 -1.52763,0 -2.82613,0.7689 -2.82613,2.52057 0,4.20095 8.47325,3.0145 8.47325,8.97222 0,3.58991 -2.82612,5.41796 -6.1105,5.41796 -1.828,0 -5.805,-1.06424 -5.805,-1.82805 0,-0.1935 0.0862,-0.30553 0.15788,-0.46338 l 0.52962,-1.17627 c 0.1225,-0.26988 0.23425,-0.34625 0.35138,-0.34625 0.34625,0 2.327,1.33921 4.924,1.33921 1.64475,0 3.05525,-0.91657 3.05525,-2.75481 0,-3.96673 -8.47825,-3.08579 -8.47825,-8.85001 0,-3.09089 2.40337,-5.30594 5.76925,-5.30594 1.2985,0 3.50337,0.61105 4.5065,1.14062 0.29537,0.15785 0.4125,0.30553 0.4125,0.49903 0,0.112 -0.1175,0.22914 -0.15288,0.37681 l -0.49387,1.03369 z m -17.835,-2.05871 c 0,-0.26988 0.1125,-0.41755 0.25975,-0.46338 l 1.9095,-0.4532 c 0.3055,-0.0764 0.1935,-0.0408 0.46337,-0.0764 0.26988,0 0.26988,0.30552 0.26988,0.49392 l 0,13.59073 c 0,0.87583 0.0412,1.71603 0.4175,2.52057 0.23425,0.4532 0.72312,1.2221 0.72312,1.44615 0,0.15785 -0.18837,0.22915 -0.34125,0.30553 l -1.497,0.91657 c -0.14762,0.0764 -0.219,0.112 -0.29537,0.112 -0.57538,0 -1.00313,-1.36976 -1.41563,-2.2507 -1.06925,0.88094 -3.1265,2.2507 -5.30587,2.2507 -5.15313,0 -5.57075,-2.97377 -5.57075,-5.72349 l 0,-12.66906 c 0,-0.26987 0.1125,-0.41755 0.26987,-0.46337 l 1.89938,-0.4532 c 0.31062,-0.0764 0.1935,-0.0408 0.46337,-0.0764 0.26988,0 0.26988,0.30553 0.26988,0.49393 l 0,13.24447 c 0,1.64474 0.64675,3.09598 3.1215,3.09598 1.18637,0 3.63062,-1.26284 4.35875,-1.94518 l 0,-13.89625 z m -15.39538,17.40162 c 0,0.30553 -0.15787,0.46338 -0.46337,0.46338 l -2.215,0 c -0.30563,0 -0.45325,-0.15785 -0.45325,-0.46338 l -0.611,-19.61974 c -0.0362,-0.75871 0,-1.71602 0.0362,-2.36272 l -0.0712,-0.0713 c -0.0412,0.83001 -0.15275,1.78732 -0.45825,2.70899 l -4.62363,13.28011 c -0.14762,0.34116 -0.224,0.41755 -0.57025,0.41755 l -1.15087,0 c -0.336,0 -0.45313,-0.0764 -0.57025,-0.41755 l -4.41988,-13.28011 c -0.31062,-0.92167 -0.42262,-1.87898 -0.46337,-2.70899 l -0.0763,0.0713 c 0.0362,0.6467 0.0763,1.60401 0.0362,2.36272 l -0.56525,19.61974 c 0,0.30553 -0.15275,0.46338 -0.46338,0.46338 l -2.215,0 c -0.30562,0 -0.45325,-0.15785 -0.45325,-0.46338 l 1.44613,-25.2261 c 0,-0.30552 0.15787,-0.46339 0.46337,-0.46339 l 2.47475,0 c 0.3055,0 0.3055,0.0815 0.42775,0.387 l 4.5065,13.163 c 0.18325,0.58049 0.34113,1.53272 0.48888,2.36782 l 0.0713,0 c 0.19862,-0.79947 0.34625,-1.78733 0.53975,-2.36782 l 4.50137,-13.163 c 0.1175,-0.30552 0.1175,-0.387 0.42263,-0.387 l 2.485,0 c 0.30037,0 0.45312,0.15787 0.45312,0.46339 l 1.492,25.2261 z m -39.78687,0 c 0,0.30553 -0.15788,0.46338 -0.46338,0.46338 l -1.98587,0 c -0.3055,0 -0.45325,-0.15785 -0.45325,-0.46338 l 0,-13.0917 c 0,-0.68234 -0.1175,-1.94517 -0.65175,-2.90249 -0.3005,-0.52957 -0.42263,-0.8351 -0.42263,-0.95221 0.0462,-0.22405 0.1935,-0.34117 0.26988,-0.38191 l 1.41562,-0.88093 c 0.14763,-0.112 0.3055,-0.18331 0.38188,-0.18331 0.68737,0 1.33412,2.36273 1.48687,3.20291 0.98788,-1.07442 2.36775,-3.20291 4.57775,-3.20291 0.88088,0 1.86875,0.30553 1.86875,0.65179 0,0.0713 -0.0712,0.17822 -0.10625,0.30552 l -0.84525,1.94008 c -0.0362,0.0764 -0.0712,0.26987 -0.22925,0.26987 -0.18837,0 -0.5295,-0.34116 -1.25762,-0.34116 -1.32913,0 -2.6785,1.98081 -3.58488,2.97376 l 0,12.59269 z m -12.1135,-25.56981 c 1.105,0 2.0215,0.91657 2.0215,2.02155 0,1.09989 -0.9165,2.02155 -2.0215,2.02155 -1.105,0 -2.0215,-0.92166 -2.0215,-2.02155 0,-1.10498 0.9165,-2.02155 2.0215,-2.02155 m -7.521,4.0431 c -1.09988,0 -2.0215,-0.92166 -2.0215,-2.02155 0,-1.10498 0.92162,-2.02155 2.0215,-2.02155 1.14062,0 2.02662,0.91657 2.02662,2.02155 0,1.09989 -0.886,2.02155 -2.02662,2.02155 m 7.55662,4.12457 c 0,-0.26987 0.1225,-0.41755 0.26988,-0.46337 l 1.9095,-0.45829 c 0.30562,-0.0713 0.1885,-0.0305 0.45325,-0.0713 0.275,0 0.275,0.30553 0.275,0.49393 l 0,13.58563 c 0,0.88603 0.03,1.72113 0.41237,2.52568 0.22925,0.45319 0.72825,1.22209 0.72825,1.44614 0,0.15276 -0.1885,0.23423 -0.34125,0.30552 l -1.48687,0.91658 c -0.15275,0.0764 -0.23425,0.112 -0.31063,0.112 -0.57537,0 -0.98787,-1.36977 -1.40537,-2.25069 -1.0795,0.88092 -3.13675,2.25069 -5.31613,2.25069 -5.143,0 -5.57075,-2.97377 -5.57075,-5.71839 l 0,-12.67416 c 0,-0.26988 0.1175,-0.41755 0.26988,-0.46338 l 1.90962,-0.45829 c 0.3055,-0.0713 0.1935,-0.0305 0.45313,-0.0713 0.26987,0 0.26987,0.30553 0.26987,0.49393 l 0,13.24956 c 0,1.63965 0.65175,3.09089 3.13163,3.09089 1.18137,0 3.62562,-1.25774 4.34862,-1.94518 l 0,-13.89625 z m -19.16037,17.40214 c 0,0.30553 -0.15788,0.46338 -0.46338,0.46338 l -1.98587,0 c -0.3055,0 -0.45325,-0.15785 -0.45325,-0.46338 l 0,-15.49516 -2.67838,0 c -0.25975,0 -0.25975,-0.26479 -0.25975,-0.46338 l 0,-1.44615 c 0,-0.26478 0,-0.46337 0.25975,-0.46337 l 2.67838,0 0,-2.97378 c 0,-2.85665 0.57037,-6.32943 5.306,-6.32943 1.75162,0 4.20087,0.75872 4.20087,1.33412 0,0.112 -0.1175,0.26988 -0.1935,0.53466 l -0.53462,1.26284 c -0.0762,0.112 -0.15275,0.22405 -0.26475,0.22405 -0.65188,0 -1.71613,-0.79945 -3.32013,-0.79945 -2.14375,0 -2.29137,1.604 -2.29137,3.81395 l 0,2.93304 5.48925,0 c 0.23425,0 0.42775,0.0459 0.42775,0.27496 0,0.0764 -0.0412,0.15786 -0.0412,0.26479 l -0.499,1.49707 c -0.0713,0.17823 -0.26488,0.33608 -0.494,0.33608 l -4.88325,0 0,15.49516 z m -22.80288,-10.45706 c 0,-1.98591 -0.65175,-5.57073 -3.97687,-5.57073 -3.50338,0 -4.27225,3.6612 -4.27225,5.57073 l 8.24912,0 z m 2.597,9.15554 c 0.0363,0.12225 0.1125,0.19858 0.1125,0.31061 0,0.42774 -3.208,1.98591 -6.03412,1.98591 -5.07175,-0.0407 -8.0505,-3.89544 -8.0505,-9.69021 0,-5.62164 2.821,-9.70039 7.55662,-9.70039 6.37013,0 6.9455,6.18686 6.9455,9.46616 0,0.53975 0,0.8351 -0.4175,0.8351 l -10.95812,0 c 0,2.33217 0.9165,6.53312 5.26512,6.53312 2.485,0 4.47088,-1.56327 4.7,-1.56327 0.1125,0 0.14775,0.112 0.22913,0.22405 l 0.65187,1.59892 z m -15.31437,1.07798 c 0.035,0.0764 0.0763,0.18842 0.0763,0.2597 0,0.42773 -1.828,0.95222 -3.24875,0.95222 -1.86875,0 -3.12138,-0.75872 -3.58988,-1.82297 -0.5245,-1.25773 -0.5245,-4.20095 -0.5245,-5.53507 l 0,-19.81324 c 0,-0.26479 0.1125,-0.41755 0.25975,-0.45319 l 1.9095,-0.46338 c 0.3055,-0.0764 0.1935,-0.0356 0.46338,-0.0764 0.25962,0 0.25962,0.30553 0.25962,0.49393 l 0,20.38355 c 0,1.19155 0.0462,3.13671 0.1225,3.595 0.0713,0.41246 0.4125,1.32902 1.5175,1.32902 1.00313,0 1.721,-0.49392 1.996,-0.49392 0.219,0 0.219,0.11712 0.25975,0.22913 l 0.499,1.4156 z m -16.08175,-17.17808 c 0,-0.26988 0.1175,-0.41755 0.26475,-0.46338 l 1.90962,-0.4532 c 0.3105,-0.0764 0.18838,-0.0408 0.45825,-0.0764 0.26988,0 0.26988,0.30552 0.26988,0.49392 l 0,13.59073 c 0,0.87583 0.0412,1.71603 0.4175,2.52057 0.23425,0.4532 0.73325,1.2221 0.73325,1.44615 0,0.15785 -0.1985,0.22915 -0.34625,0.30553 l -1.492,0.91657 c -0.14763,0.0764 -0.22913,0.112 -0.3055,0.112 -0.57538,0 -0.99288,-1.36976 -1.4105,-2.2507 -1.07438,0.88094 -3.13163,2.2507 -5.311,2.2507 -5.143,0 -5.57075,-2.97377 -5.57075,-5.72349 l 0,-12.66906 c 0,-0.26987 0.1175,-0.41755 0.26987,-0.46337 l 1.9095,-0.4532 c 0.30563,-0.0764 0.1935,-0.0408 0.45325,-0.0764 0.26988,0 0.26988,0.30553 0.26988,0.49393 l 0,13.24447 c 0,1.64474 0.64675,3.09598 3.13162,3.09598 1.18138,0 3.6255,-1.26284 4.34863,-1.94518 l 0,-13.89625 z m -29.0905,-8.77975 c 0,-0.26479 0.1125,-0.41755 0.25975,-0.4532 l 1.9095,-0.46338 c 0.3055,-0.0764 0.1935,-0.0408 0.46337,-0.0764 0.25963,0 0.25963,0.30552 0.25963,0.49392 l 0,10.88175 c 1.22212,-0.99295 3.208,-2.59695 5.9985,-2.59695 4.23662,0 4.54725,2.97885 4.54725,5.72348 l 0,12.66907 c 0,0.31061 -0.15788,0.46846 -0.4685,0.46846 l -1.98088,0 c -0.3055,0 -0.45825,-0.15785 -0.45825,-0.46846 l 0,-12.74036 c 0,-1.64474 -0.4175,-3.09088 -2.48487,-3.09088 -2.47475,0 -4.19588,1.48688 -5.15325,2.32708 l 0,13.50416 c 0,0.31061 -0.14763,0.46846 -0.45313,0.46846 l -1.98587,0 c -0.30563,0 -0.45325,-0.15785 -0.45325,-0.46846 l 0,-26.17832 z m -4.289,24.88341 c 0.0463,0.11712 0.1175,0.1935 0.1175,0.30552 0,0.42264 -3.208,1.9859 -6.03413,1.9859 -4.537,0 -7.17475,-3.54916 -7.17475,-9.12497 0,-6.37019 3.06038,-10.26561 7.75525,-10.26561 2.55113,0 5.49438,1.79241 5.49438,2.36781 0,0.112 -0.0763,0.1935 -0.1125,0.30552 l -0.881,1.604 c -0.0712,0.112 -0.1225,0.22914 -0.22913,0.22914 -0.15275,0 -1.79237,-1.94516 -4.04312,-1.94516 -3.74775,0 -4.84763,2.78026 -4.84763,7.13907 0,3.4677 0.68238,7.13908 4.38425,7.13908 2.47988,0 4.46575,-1.56835 4.69488,-1.56835 0.1175,0 0.15275,0.112 0.22912,0.22405 l 0.64675,1.604 z m -18.1405,-14.04495 c -0.14763,0.30552 -0.224,0.46337 -0.45325,0.46337 -0.26988,0 -1.87388,-1.03877 -3.85975,-1.03877 -1.52763,0 -2.82613,0.7689 -2.82613,2.52057 0,4.20095 8.47838,3.0145 8.47838,8.97222 0,3.58991 -2.82613,5.41796 -6.10538,5.41796 -1.83825,0 -5.805,-1.06424 -5.805,-1.82805 0,-0.1935 0.0762,-0.30553 0.14763,-0.46338 l 0.53975,-1.17627 c 0.1125,-0.26988 0.23425,-0.34625 0.34625,-0.34625 0.34125,0 2.322,1.33921 4.919,1.33921 1.64475,0 3.06037,-0.91657 3.06037,-2.75481 0,-3.96673 -8.48337,-3.08579 -8.48337,-8.85001 0,-3.09089 2.41362,-5.30594 5.76925,-5.30594 1.2985,0 3.5135,0.61105 4.5065,1.14062 0.3055,0.15785 0.4175,0.30553 0.4175,0.49903 0,0.112 -0.1125,0.22914 -0.15275,0.37681 l -0.499,1.03369 z m -27.83375,-10.83846 c 0,-0.26479 0.1125,-0.41755 0.26475,-0.4532 l 1.90962,-0.46338 c 0.3055,-0.0764 0.19338,-0.0408 0.45825,-0.0764 0.26988,0 0.26988,0.30552 0.26988,0.49392 l 0,10.88175 c 1.217,-0.99295 3.20287,-2.59695 5.99337,-2.59695 4.2315,0 4.54213,2.97885 4.54213,5.72348 l 0,12.66907 c 0,0.31061 -0.15275,0.46846 -0.46338,0.46846 l -1.98087,0 c -0.3055,0 -0.45825,-0.15785 -0.45825,-0.46846 l 0,-12.74036 c 0,-1.64474 -0.4175,-3.09088 -2.485,-3.09088 -2.47463,0 -4.19575,1.48688 -5.148,2.32708 l 0,13.50416 c 0,0.31061 -0.15275,0.46846 -0.45825,0.46846 l -1.986,0 c -0.3055,0 -0.45825,-0.15785 -0.45825,-0.46846 l 0,-26.17832 z m -4.2815,24.88341 c 0.0413,0.11712 0.1125,0.1935 0.1125,0.30552 0,0.42264 -3.208,1.9859 -6.029,1.9859 -4.54213,0 -7.17475,-3.54916 -7.17475,-9.12497 0,-6.37019 3.05025,-10.26561 7.75012,-10.26561 2.55625,0 5.49438,1.79241 5.49438,2.36781 0,0.112 -0.0763,0.1935 -0.1125,0.30552 l -0.881,1.604 c -0.0762,0.112 -0.1175,0.22914 -0.22913,0.22914 -0.15275,0 -1.7975,-1.94516 -4.043,-1.94516 -3.74275,0 -4.85275,2.78026 -4.85275,7.13907 0,3.4677 0.68738,7.13908 4.39438,7.13908 2.47475,0 4.46062,-1.56835 4.69487,-1.56835 0.1125,0 0.15275,0.112 0.22913,0.22405 l 0.64675,1.604 z m -19.51688,-7.55561 c 0,-3.73758 -1.03375,-7.17473 -4.46575,-7.17473 -3.43712,0 -4.46575,3.27929 -4.46575,7.0627 0,4.34863 0.993,7.59228 4.5065,7.59228 3.39125,0 4.425,-3.0858 4.425,-7.48025 m -4.69487,9.84806 c -5.15313,0 -7.36825,-4.15513 -7.36825,-9.61383 0,-5.2652 2.21512,-9.77677 7.75012,-9.77677 5.22963,0 7.4395,4.20605 7.4395,9.58327 0,5.34158 -2.25062,9.80733 -7.82137,9.80733 m -25.20263,-12.7872 0,11.79322 c 0,0.30553 -0.15275,0.46339 -0.45825,0.46339 l -2.21512,0 c -0.3055,0 -0.45313,-0.15786 -0.45313,-0.46339 l 0,-25.2261 c 0,-0.30552 0.14763,-0.46337 0.45313,-0.46337 l 2.21512,0 c 0.3055,0 0.45825,0.15785 0.45825,0.46337 l 0,10.76464 9.80738,0 0,-10.76464 c 0,-0.30552 0.15275,-0.46337 0.45825,-0.46337 l 2.215,0 c 0.3055,0 0.45837,0.15785 0.45837,0.46337 l 0,25.2261 c 0,0.30553 -0.15287,0.46339 -0.45837,0.46339 l -2.215,0 c -0.3055,0 -0.45825,-0.15786 -0.45825,-0.46339 l 0,-11.79322 -9.80738,0 z"
       id="path2874"
       style="fill:#868175;fill-opacity:1;fill-rule:nonzero;stroke:none" />
  </g>
</svg>
