<?xml version="1.0" encoding="UTF-8" standalone="no"?>
<!-- Created with Inkscape (http://www.inkscape.org/) -->

<svg
   xmlns:dc="http://purl.org/dc/elements/1.1/"
   xmlns:cc="http://creativecommons.org/ns#"
   xmlns:rdf="http://www.w3.org/1999/02/22-rdf-syntax-ns#"
   xmlns:svg="http://www.w3.org/2000/svg"
   xmlns="http://www.w3.org/2000/svg"
   version="1.1"
   width="892.91339"
   height="463.46457"
   id="svg37296">
  <defs
     id="defs37298">
    <clipPath
       id="clipPath35941">
      <path
         d="m 377.008,740.153 160.724,0 0,82.131 -160.724,0 0,-82.131 z"
         id="path35943" />
    </clipPath>
    <clipPath
       id="clipPath35949">
      <path
         d="m 377.008,822.285 160.724,0 0,-82.131 -160.724,0 0,82.131 z"
         id="path35951" />
    </clipPath>
    <clipPath
       id="clipPath35957">
      <path
         d="m 377.008,822.285 160.724,0 0,-82.131 -160.724,0 0,82.131 z"
         id="path35959" />
    </clipPath>
    <clipPath
       id="clipPath35965">
      <path
         d="m 159.28,966.005 558.788,0 0,-395.106 -558.788,0 0,395.106 z"
         id="path35967" />
    </clipPath>
  </defs>
  <metadata
     id="metadata37301">
    <rdf:RDF>
      <cc:Work
         rdf:about="">
        <dc:format>image/svg+xml</dc:format>
        <dc:type
           rdf:resource="http://purl.org/dc/dcmitype/StillImage" />
        <dc:title></dc:title>
      </cc:Work>
    </rdf:RDF>
  </metadata>
  <g
     transform="translate(10.576418,-227.0845)"
     id="layer1">
    <g
       transform="matrix(5.7496906,0,0,-5.7496906,-2179.5184,4958.2809)"
       id="g35937">
      <g
         clip-path="url(#clipPath35941)"
         id="g35939">
        <g
           id="g35945">
          <g
             clip-path="url(#clipPath35949)"
             id="g35947">
            <g
               id="g35953">
              <g
                 clip-path="url(#clipPath35957)"
                 id="g35955">
                <g
                   id="g35961">
                  <g
                     clip-path="url(#clipPath35965)"
                     id="g35963">
                    <path
                       d="m 519.164,805.918 c -0.511,2.295 -2.12,4.387 -4.2,5.46 -0.907,0.432 -1.809,0.645 -2.746,0.645 -1.248,0 -2.394,-0.378 -3.505,-0.744 -1.092,-0.36 -2.123,-0.7 -3.225,-0.7 -0.444,0 -0.86,0.055 -1.274,0.168 -0.914,0.251 -1.779,0.603 -2.645,1.076 -1.315,0.828 -2.483,1.814 -3.613,2.769 -1.455,1.228 -2.829,2.389 -4.348,3.098 -1.022,0.595 -2.006,1.038 -3.041,1.371 -1.01,0.328 -1.892,0.48 -2.776,0.48 -0.86,0 -1.629,-0.147 -2.443,-0.302 -1.098,-0.21 -2.243,-0.429 -3.819,-0.361 -1.538,0.066 -2.458,0.414 -3.348,0.751 -0.972,0.367 -1.89,0.713 -3.639,0.713 -0.815,0 -1.736,-0.074 -2.815,-0.229 -1.257,-0.179 -3.549,-1.238 -5.977,-2.359 -3.245,-1.5 -6.602,-3.051 -8.575,-3.051 l -0.084,10e-4 c -1.05,0.024 -1.926,0.334 -2.852,0.663 -1.467,0.52 -3.169,1.12 -6.27,0.93 -1.975,-0.12 -3.863,-1.422 -5.178,-3.571 -4.474,-7.304 0.473,-12.438 3.43,-15.505 0.189,-0.196 0.369,-0.383 0.537,-0.561 0.054,-0.057 0.091,-0.13 0.106,-0.208 l 0.655,-3.471 c 0.763,0.037 1.572,0.06 2.461,0.06 13.621,0 14.438,-7.454 14.438,-12.01 0,-2.26 -0.107,-5.28 -1.925,-7.749 4.98,-0.16 9.374,-0.408 10.465,-0.796 2.825,-1.004 3.564,-2.541 4.063,-3.865 1.111,-2.953 2.226,-7.361 2.068,-13.735 0,0 8.334,-0.787 11.966,-1.326 9.51,-1.409 17.296,-2.978 23.602,-4.591 -0.847,1.281 -3.3,5.681 -4.697,15.328 -1.956,13.509 1.216,28.155 1.249,28.302 0.005,0.027 0.014,0.052 0.025,0.078 0.642,1.463 2.041,2.689 3.52,3.987 1.013,0.888 2.059,1.806 2.817,2.788 1.944,2.521 1.938,4.908 1.593,6.466"
                       id="path35969"
                       style="fill:#ffffff;fill-opacity:1;fill-rule:nonzero;stroke:none" />
                    <path
                       d="m 479.092,809.467 c -0.889,0.61 -2.338,0.975 -3.879,0.975 -1.731,0 -3.18,-0.46 -3.878,-1.23 -0.372,-0.411 -0.54,-0.915 -0.486,-1.459 0.153,-1.567 2.418,-2.125 4.485,-2.125 0.516,0 1.028,0.035 1.521,0.102 l 0.487,0.071 c 1.333,0.196 2.011,0.235 3.206,-0.356 0.044,-0.022 0.091,-0.033 0.139,-0.033 0.062,0 0.123,0.018 0.176,0.054 0.094,0.063 0.147,0.171 0.139,0.283 -0.109,1.602 -0.805,2.956 -1.91,3.718"
                       id="path35971"
                       style="fill:#005e6c;fill-opacity:1;fill-rule:nonzero;stroke:none" />
                    <path
                       d="m 501.162,807.769 c -0.501,0.723 -1.608,1.138 -3.036,1.138 -0.959,0 -1.932,-0.195 -2.605,-0.519 -0.14,-0.068 -0.209,-0.228 -0.163,-0.377 0.509,-1.644 1.928,-3.307 3.652,-3.307 0.762,0 1.499,0.322 2.19,0.957 0.036,0.033 0.065,0.075 0.082,0.121 0.293,0.781 0.253,1.448 -0.12,1.987"
                       id="path35973"
                       style="fill:#005e6c;fill-opacity:1;fill-rule:nonzero;stroke:none" />
                    <path
                       d="m 494.295,785.009 c -0.552,-3.733 5.851,-2.326 5.115,-4.871 -0.512,-1.778 -7.389,-2.159 -11.044,-1.825 -4.057,0.368 -5.55,0.865 -7.484,3.113 -1.257,1.462 4.467,0.38 6.745,0.853 1.541,0.318 3.667,2.707 3.781,3.741 0.393,3.587 -6.249,3.534 -5.219,7.933 1.397,5.946 18.474,5.073 15.596,-3.192 -0.873,-2.514 -6.939,-2.019 -7.49,-5.752"
                       id="path35975"
                       style="fill:#005e6c;fill-opacity:1;fill-rule:evenodd;stroke:none" />
                    <path
                       d="m 510.661,800.926 c 0.302,2.652 -0.685,6.058 -0.685,6.058 0.997,0.873 2.89,1.597 4.136,0.998 3.203,-1.553 0.004,-7.034 -3.451,-7.056"
                       id="path35977"
                       style="fill:#005e6c;fill-opacity:1;fill-rule:evenodd;stroke:none" />
                    <path
                       d="m 455.14,809.919 c -0.549,-1.865 -2.602,-5.106 -3.53,-6.599 -9.754,7.378 -0.211,10.864 3.53,6.599"
                       id="path35979"
                       style="fill:#005e6c;fill-opacity:1;fill-rule:evenodd;stroke:none" />
                    <path
                       d="m 530.603,743.549 c -1.738,0.828 -3.82,1.679 -6.271,2.537 -0.004,0.004 -0.006,0.008 -0.01,0.011 -2.41,1.935 -10.612,11.952 -12.041,21.074 -1.626,10.386 0.285,24.023 0.426,24.995 0.713,1.607 1.935,2.707 3.228,3.871 0.835,0.751 1.698,1.528 2.503,2.498 0.453,0.544 2.664,4.121 2.25,7.964 -0.254,2.354 -1.425,4.362 -3.482,5.967 -2.173,1.695 -4.285,1.924 -6.065,1.924 -0.598,0 -1.196,-0.029 -1.794,-0.057 -0.587,-0.028 -1.174,-0.056 -1.763,-0.056 -1.04,0 -1.889,0.093 -2.671,0.291 -2.207,0.564 -3.69,1.686 -5.26,2.874 -2.333,1.766 -4.979,3.769 -10.548,4.386 -1.689,0.186 -2.967,0.273 -4.019,0.273 -0.891,0 -1.521,-0.064 -2.131,-0.125 -0.414,-0.042 -0.835,-0.085 -1.353,-0.11 -1.002,-0.05 -1.97,0.039 -3.27,0.155 -0.837,0.076 -1.784,0.162 -2.929,0.225 -0.731,0.039 -3.035,-0.21 -5.258,-0.991 -0.505,-0.178 -1.516,-0.7 -2.795,-1.361 -3.099,-1.6 -7.781,-4.019 -10.076,-4.035 -1.215,0 -2.039,0.331 -2.995,0.714 -1.352,0.543 -3.037,1.22 -6.421,1.157 -3.546,-0.071 -8.422,-3.36 -10.117,-8.547 -1.676,-5.137 0.556,-8.916 2.35,-11.953 0.633,-1.072 1.232,-2.085 1.586,-3.033 l -0.192,-2.234 c 1.459,0.545 3.387,0.891 6.034,1.019 l -0.655,3.47 c -0.015,0.078 -0.052,0.151 -0.106,0.209 -0.168,0.177 -0.348,0.364 -0.538,0.56 -2.956,3.067 -7.903,8.201 -3.43,15.505 1.316,2.149 3.203,3.451 5.179,3.571 3.101,0.191 4.802,-0.41 6.27,-0.93 0.926,-0.329 1.802,-0.639 2.852,-0.663 l 0.084,-10e-4 c 1.973,0 5.329,1.551 8.576,3.051 2.426,1.121 4.719,2.18 5.976,2.359 1.079,0.155 2,0.23 2.815,0.23 1.749,0 2.667,-0.347 3.639,-0.714 0.889,-0.337 1.81,-0.685 3.348,-0.75 1.576,-0.069 2.721,0.15 3.818,0.36 0.815,0.155 1.583,0.303 2.444,0.303 0.884,0 1.766,-0.153 2.776,-0.48 1.035,-0.334 2.019,-0.777 3.041,-1.372 1.519,-0.709 2.893,-1.869 4.348,-3.099 1.13,-0.953 2.297,-1.94 3.613,-2.767 0.866,-0.474 1.73,-0.826 2.644,-1.077 0.414,-0.113 0.831,-0.168 1.275,-0.168 1.101,0 2.133,0.34 3.225,0.7 1.11,0.366 2.258,0.744 3.505,0.744 0.938,0 1.839,-0.213 2.746,-0.645 2.08,-1.072 3.689,-3.165 4.2,-5.46 0.346,-1.558 0.351,-3.945 -1.594,-6.466 -0.757,-0.982 -1.803,-1.9 -2.815,-2.788 -1.48,-1.298 -2.878,-2.524 -3.522,-3.988 -0.01,-0.025 -0.019,-0.051 -0.025,-0.077 -0.032,-0.146 -3.204,-14.793 -1.248,-28.302 1.397,-9.646 3.849,-14.046 4.696,-15.328 -6.306,1.613 -14.091,3.182 -23.601,4.591 -3.633,0.539 -11.966,1.326 -11.966,1.326 0.158,6.374 -0.958,10.782 -2.068,13.735 -0.499,1.324 -1.238,2.861 -4.064,3.865 -1.09,0.388 -5.484,0.636 -10.464,0.796 -1.845,-2.507 -5.454,-4.447 -12.513,-4.447 -8.983,0 -10.982,1.913 -12.794,4.966 -1.814,-3.053 -3.975,-4.966 -12.796,-4.966 -6.037,0 -8.101,1.139 -10.272,2.799 l -0.595,-2.434 -24.501,0.317 0,6.388 -1.414,0.059 c -2.364,0 -10.6,0.057 -9.695,-7.761 l 2.802,-14.653 c 0.872,-4.226 5.609,-5.853 7.835,-5.699 0,0 24.488,2.238 66.122,2.414 61.453,0.261 83.06,-10.112 75.931,-6.716"
                       id="path35981"
                       style="fill:#005e6c;fill-opacity:1;fill-rule:nonzero;stroke:none" />
                    <path
                       d="m 392.814,762.073 c 0,0.491 -0.162,0.835 -0.484,1.03 -0.324,0.194 -0.852,0.293 -1.577,0.293 l -0.679,0 0,-2.571 0.693,0 c 0.784,0 1.32,0.087 1.612,0.259 0.289,0.172 0.435,0.501 0.435,0.989 m 4.369,-7.291 -3.454,0 -0.84,1.889 c -0.308,0.693 -0.585,1.198 -0.831,1.519 -0.243,0.321 -0.486,0.527 -0.72,0.616 -0.231,0.089 -0.531,0.137 -0.902,0.137 l -0.362,0 0,-4.161 -3.217,0 0,10.66 5.473,0 c 0.881,0 1.604,-0.181 2.169,-0.54 0.563,-0.357 0.971,-0.793 1.218,-1.307 0.249,-0.513 0.375,-0.999 0.375,-1.46 0,-0.541 -0.105,-0.994 -0.313,-1.368 -0.207,-0.369 -0.427,-0.642 -0.658,-0.81 -0.229,-0.17 -0.49,-0.331 -0.775,-0.484 0.341,-0.202 0.627,-0.437 0.848,-0.71 0.225,-0.275 0.528,-0.831 0.91,-1.667 l 1.079,-2.314 z"
                       id="path35983"
                       style="fill:#ffffff;fill-opacity:1;fill-rule:nonzero;stroke:none" />
                    <path
                       d="m 407.564,760.118 c 0,0.399 -0.06,0.767 -0.177,1.096 -0.118,0.331 -0.296,0.619 -0.535,0.862 -0.238,0.243 -0.528,0.434 -0.874,0.57 -0.342,0.136 -0.741,0.204 -1.192,0.204 -0.861,0 -1.538,-0.254 -2.03,-0.754 -0.49,-0.503 -0.738,-1.162 -0.738,-1.978 0,-0.817 0.249,-1.477 0.741,-1.98 0.494,-0.505 1.169,-0.758 2.027,-0.758 0.59,0 1.093,0.116 1.51,0.348 0.414,0.236 0.729,0.558 0.945,0.967 0.214,0.415 0.323,0.888 0.323,1.423 m 3.276,0 c 0,-0.995 -0.228,-1.911 -0.688,-2.746 -0.457,-0.835 -1.14,-1.501 -2.048,-1.991 -0.909,-0.495 -2.016,-0.74 -3.318,-0.74 -1.318,0 -2.434,0.258 -3.345,0.769 -0.914,0.514 -1.593,1.185 -2.036,2.022 -0.445,0.838 -0.665,1.733 -0.665,2.686 0,0.959 0.22,1.854 0.662,2.691 0.442,0.834 1.121,1.504 2.037,2.014 0.913,0.51 2.029,0.765 3.347,0.765 0.984,0 1.864,-0.146 2.635,-0.439 0.774,-0.29 1.407,-0.688 1.904,-1.186 0.498,-0.502 0.874,-1.083 1.129,-1.749 0.26,-0.663 0.386,-1.363 0.386,-2.096"
                       id="path35985"
                       style="fill:#ffffff;fill-opacity:1;fill-rule:nonzero;stroke:none" />
                    <path
                       d="m 421.082,757.882 c 0,-0.669 -0.169,-1.246 -0.51,-1.729 -0.341,-0.492 -0.817,-0.864 -1.426,-1.126 -0.611,-0.258 -1.312,-0.386 -2.1,-0.386 -0.222,0 -0.491,0.014 -0.814,0.043 -0.319,0.028 -0.745,0.105 -1.275,0.233 -0.531,0.13 -1.084,0.319 -1.659,0.572 l 0,2.614 c 0.538,-0.334 1.065,-0.611 1.587,-0.831 0.521,-0.222 1.08,-0.332 1.675,-0.332 0.547,0 0.904,0.093 1.066,0.274 0.16,0.182 0.241,0.352 0.241,0.512 0,0.287 -0.138,0.529 -0.415,0.724 -0.278,0.199 -0.679,0.405 -1.21,0.614 -0.581,0.245 -1.093,0.516 -1.535,0.805 -0.442,0.29 -0.801,0.651 -1.08,1.088 -0.282,0.434 -0.42,0.951 -0.42,1.545 0,0.576 0.14,1.094 0.422,1.56 0.282,0.466 0.713,0.834 1.293,1.109 0.579,0.277 1.287,0.417 2.124,0.417 0.593,0 1.144,-0.058 1.649,-0.173 0.506,-0.116 0.921,-0.246 1.25,-0.389 0.328,-0.143 0.553,-0.256 0.678,-0.338 l 0,-2.502 c -0.439,0.315 -0.923,0.594 -1.459,0.84 -0.537,0.245 -1.11,0.37 -1.718,0.37 -0.4,0 -0.692,-0.077 -0.87,-0.23 -0.18,-0.154 -0.27,-0.347 -0.27,-0.569 0,-0.213 0.09,-0.395 0.27,-0.547 0.178,-0.154 0.5,-0.341 0.959,-0.562 0.823,-0.385 1.479,-0.729 1.971,-1.039 0.493,-0.307 0.877,-0.664 1.158,-1.065 0.281,-0.405 0.418,-0.905 0.418,-1.502"
                       id="path35987"
                       style="fill:#ffffff;fill-opacity:1;fill-rule:nonzero;stroke:none" />
                    <path
                       d="m 434.281,762.85 -3.908,0 0,-8.069 -3.209,0 0,8.069 -3.908,0 0,2.592 11.025,0 0,-2.592 z"
                       id="path35989"
                       style="fill:#ffffff;fill-opacity:1;fill-rule:nonzero;stroke:none" />
                    <path
                       d="m 444.179,760.118 c 0,0.399 -0.061,0.767 -0.18,1.096 -0.115,0.331 -0.294,0.619 -0.534,0.862 -0.237,0.243 -0.529,0.434 -0.873,0.57 -0.342,0.136 -0.74,0.204 -1.194,0.204 -0.859,0 -1.537,-0.254 -2.028,-0.754 -0.492,-0.503 -0.742,-1.162 -0.742,-1.978 0,-0.817 0.252,-1.477 0.745,-1.98 0.492,-0.505 1.169,-0.758 2.025,-0.758 0.591,0 1.092,0.116 1.51,0.348 0.416,0.236 0.731,0.558 0.946,0.967 0.216,0.415 0.325,0.888 0.325,1.423 m 3.275,0 c 0,-0.995 -0.229,-1.911 -0.689,-2.746 -0.458,-0.835 -1.139,-1.501 -2.05,-1.991 -0.907,-0.495 -2.01,-0.74 -3.317,-0.74 -1.316,0 -2.433,0.258 -3.345,0.769 -0.913,0.514 -1.591,1.185 -2.035,2.022 -0.444,0.838 -0.664,1.733 -0.664,2.686 0,0.959 0.22,1.854 0.66,2.691 0.442,0.834 1.119,1.504 2.036,2.014 0.915,0.51 2.032,0.765 3.348,0.765 0.984,0 1.866,-0.146 2.636,-0.439 0.771,-0.29 1.407,-0.688 1.904,-1.186 0.498,-0.502 0.875,-1.083 1.131,-1.749 0.259,-0.663 0.385,-1.363 0.385,-2.096"
                       id="path35991"
                       style="fill:#ffffff;fill-opacity:1;fill-rule:nonzero;stroke:none" />
                    <path
                       d="m 459.79,755.581 c -0.442,-0.234 -0.894,-0.418 -1.353,-0.557 -0.464,-0.138 -0.928,-0.236 -1.397,-0.294 -0.471,-0.06 -0.955,-0.089 -1.461,-0.089 -0.924,0 -1.76,0.128 -2.495,0.383 -0.732,0.258 -1.374,0.637 -1.916,1.136 -0.54,0.502 -0.944,1.084 -1.212,1.753 -0.273,0.67 -0.405,1.405 -0.405,2.205 0,0.918 0.158,1.724 0.476,2.413 0.319,0.688 0.762,1.262 1.336,1.718 0.57,0.458 1.223,0.795 1.952,1.01 0.733,0.218 1.501,0.329 2.313,0.329 1.211,0 2.583,-0.269 4.116,-0.81 l 0,-2.828 c -0.527,0.328 -1.05,0.6 -1.566,0.819 -0.515,0.217 -1.12,0.326 -1.818,0.326 -0.621,0 -1.202,-0.123 -1.738,-0.369 -0.541,-0.245 -0.973,-0.598 -1.303,-1.053 -0.327,-0.457 -0.489,-0.989 -0.489,-1.6 0,-0.539 0.142,-1.033 0.428,-1.482 0.288,-0.449 0.685,-0.807 1.196,-1.069 0.51,-0.264 1.088,-0.396 1.727,-0.396 0.52,0 1.006,0.063 1.469,0.189 0.464,0.123 0.853,0.265 1.166,0.417 0.317,0.158 0.64,0.337 0.974,0.549 l 0,-2.7 z"
                       id="path35993"
                       style="fill:#ffffff;fill-opacity:1;fill-rule:nonzero;stroke:none" />
                    <path
                       d="m 473.954,754.781 -3.92,0 -4.077,4.991 0,-4.991 -3.218,0 0,10.661 3.218,0 0,-4.771 3.861,4.771 3.49,0 -3.969,-4.993 4.615,-5.668 z"
                       id="path35995"
                       style="fill:#ffffff;fill-opacity:1;fill-rule:nonzero;stroke:none" />
                    <path
                       d="m 413.523,769.199 0.596,2.436 c 2.17,-1.661 4.234,-2.801 10.271,-2.801 8.821,0 10.983,1.914 12.796,4.968 1.813,-3.054 3.811,-4.968 12.794,-4.968 7.059,0 10.668,1.94 12.513,4.447 1.818,2.471 1.925,5.49 1.925,7.75 0,4.555 -0.817,12.01 -14.438,12.01 -0.889,0 -1.698,-0.023 -2.461,-0.06 -2.648,-0.127 -4.575,-0.472 -6.033,-1.018 -2.175,-0.812 -3.327,-2.064 -4.3,-3.702 -1.813,3.053 -4.061,4.78 -12.796,4.78 -5.48,0 -8.522,-1.106 -10.686,-2.944 l -0.664,2.624 -23.21,-0.324 0.663,-8.813 6.652,0 -8.123,-7.529 0,-0.15 0,-6.388 24.501,-0.318 z"
                       id="path35997"
                       style="fill:#ffffff;fill-opacity:1;fill-rule:nonzero;stroke:none" />
                    <path
                       d="m 449.98,775.327 c -3.307,0 -5.549,1.797 -5.549,5.704 0,3.882 2.242,5.704 5.549,5.704 3.335,0 5.549,-1.822 5.549,-5.704 0,-3.907 -2.214,-5.704 -5.549,-5.704 m 0,15.579 c -6.566,0 -12.114,-2.163 -12.114,-9.875 0,-7.712 5.548,-9.873 12.114,-9.873 6.568,0 12.115,2.161 12.115,9.873 0,7.712 -5.547,9.875 -12.115,9.875"
                       id="path35999"
                       style="fill:#00acdf;fill-opacity:1;fill-rule:nonzero;stroke:none" />
                    <path
                       d="m 392.152,785.907 10.917,0 -11.724,-10.866 0,-3.569 19.855,0 0,4.167 -11.465,0 11.646,10.787 0,3.648 -19.229,0 0,-4.167 z"
                       id="path36001"
                       style="fill:#f89c0e;fill-opacity:1;fill-rule:nonzero;stroke:none" />
                    <path
                       d="m 424.39,775.327 c -3.307,0 -5.548,1.797 -5.548,5.704 0,3.882 2.241,5.704 5.548,5.704 3.335,0 5.549,-1.822 5.549,-5.704 0,-3.907 -2.214,-5.704 -5.549,-5.704 m 0,15.579 c -6.568,0 -12.115,-2.163 -12.115,-9.875 0,-7.712 5.547,-9.873 12.115,-9.873 6.565,0 12.116,2.161 12.116,9.873 0,7.712 -5.551,9.875 -12.116,9.875"
                       id="path36003"
                       style="fill:#f1511b;fill-opacity:1;fill-rule:nonzero;stroke:none" />
                  </g>
                </g>
              </g>
            </g>
          </g>
        </g>
      </g>
    </g>
  </g>
</svg>
